<svg id="Layer_1" data-name="Layer 1" xmlns="http://www.w3.org/2000/svg" viewBox="0 0 2477.32 2364.96"><title>ai-black</title><path d="M2083.41,757.4c0-16.74,6.27-25.11,25.11-25.11H2437.1c16.74,0,25.11,6.27,25.11,25.11V2408.69c0,16.74-4.18,25.11-25.11,25.11H2112.7c-20.94,0-27.2-10.47-27.2-27.2V757.4Zm-23-475.09c0-133.95,94.17-213.47,213.47-213.47,127.66,0,213.47,85.81,213.47,213.47,0,138.13-90,213.47-217.65,213.47C2148.28,495.78,2060.38,420.44,2060.38,282.31ZM1118.59,1446C1060,1213.64,921.87,707.17,869.53,462.29h-4.18c-44,244.88-154.87,659.25-242.77,983.67ZM536.77,1785,371.44,2412.86c-4.18,16.74-10.47,20.92-31.38,20.92H32.39c-20.94,0-25.11-6.27-20.94-31.38L605.85,322.07c10.47-37.67,16.74-71.16,20.94-173.71,0-14.65,6.27-20.94,16.74-20.94H1083c14.65,0,20.94,4.18,25.11,20.94l665.54,2258.22c4.18,16.74,0,27.2-16.74,27.2H1409.53c-16.74,0-27.2-4.18-31.38-18.83L1206.51,1785Z" transform="translate(-10 -68.84)"/></svg>