<?xml version="1.0" encoding="utf-8"?>
<!-- Generator: Adobe Illustrator 23.0.3, SVG Export Plug-In . SVG Version: 6.00 Build 0)  -->
<svg version="1.1" id="Layer_1" xmlns="http://www.w3.org/2000/svg" xmlns:xlink="http://www.w3.org/1999/xlink" x="0px" y="0px"
	 viewBox="0 0 2500 2438" style="enable-background:new 0 0 2500 2438;" xml:space="preserve">
<style type="text/css">
	.st0{fill:#FFFFFF;}
</style>
<path class="st0" d="M2083.41,757.4c0-16.74,6.27-25.11,25.11-25.11h328.58c16.74,0,25.11,6.27,25.11,25.11v1651.29
	c0,16.74-4.18,25.11-25.11,25.11h-324.4c-20.94,0-27.2-10.47-27.2-27.2V757.4H2083.41L2083.41,757.4z M2060.38,282.31
	c0-133.95,94.17-213.47,213.47-213.47c127.66,0,213.47,85.81,213.47,213.47c0,138.13-89.99,213.47-217.65,213.47
	C2148.28,495.78,2060.38,420.44,2060.38,282.31z M1118.59,1445.96C1060,1213.64,921.87,707.17,869.53,462.29h-4.18
	c-43.96,244.88-154.87,659.25-242.77,983.67H1118.59z M536.77,1785l-165.33,627.86c-4.18,16.74-10.47,20.92-31.38,20.92H32.39
	c-20.94,0-25.11-6.27-20.94-31.38L605.85,322.07c10.47-37.67,16.74-71.16,20.94-173.71c0-14.65,6.27-20.94,16.74-20.94h439.51
	c14.65,0,20.94,4.18,25.11,20.94l665.54,2258.22c4.18,16.74,0,27.2-16.74,27.2h-347.42c-16.74,0-27.2-4.18-31.38-18.83L1206.51,1785
	H536.77L536.77,1785z"/>
</svg>
