<svg xmlns="http://www.w3.org/2000/svg" viewBox="0 0 389.95 147.91"><defs><style>.cls-1{fill:#fff;}.cls-2{fill:#2f6c35;}.cls-3{fill:#231f20;}</style></defs><title>dos_logo</title><g id="Layer_2" data-name="Layer 2"><path class="cls-1" d="M94,15.47a76.06,76.06,0,0,1,11.59-.79c7.19,0,11.86,1.29,15.52,4,3.93,2.93,6.41,7.59,6.41,14.28,0,7.26-2.64,12.26-6.29,15.36-4,3.31-10.06,4.89-17.49,4.89A74.32,74.32,0,0,1,94,52.69Zm8.62,30.92a15.63,15.63,0,0,0,3,.17c7.76.06,12.82-4.22,12.81-13.27.06-7.87-4.56-12-11.92-12a17.7,17.7,0,0,0-3.88.34Z" transform="translate(-9.29 -11.23)"/><path class="cls-1" d="M139.4,17.71A4.29,4.29,0,0,1,134.79,22a4.19,4.19,0,0,1-4.45-4.27,4.18,4.18,0,0,1,4.5-4.33A4.29,4.29,0,0,1,139.4,17.71Zm-8.82,35.14V25.36h8.55v27.5Z" transform="translate(-9.29 -11.23)"/><path class="cls-1" d="M143.29,45.37a16.74,16.74,0,0,0,7.36,2.08c2.59,0,3.66-.91,3.66-2.31s-.85-2.08-4.05-3.15c-5.68-1.91-7.88-5-7.82-8.26,0-5.12,4.38-9,11.19-9a18.54,18.54,0,0,1,7.76,1.57l-1.52,5.91a13.44,13.44,0,0,0-6-1.58c-2.08,0-3.26.85-3.26,2.25s1.07,2,4.44,3.15c5.23,1.8,7.42,4.44,7.48,8.49,0,5.11-4,8.88-11.92,8.89a19.54,19.54,0,0,1-8.88-1.91Z" transform="translate(-9.29 -11.23)"/><path class="cls-1" d="M186.75,52.16a20.87,20.87,0,0,1-7.64,1.24c-8.89,0-14.57-5.4-14.57-14.06,0-8,5.5-14.62,15.74-14.62a19.67,19.67,0,0,1,6.52,1.07l-1.35,6.35a11.69,11.69,0,0,0-4.78-.84c-4.49,0-7.42,3.21-7.36,7.7,0,5.06,3.38,7.71,7.54,7.7a13.1,13.1,0,0,0,4.89-.84Z" transform="translate(-9.29 -11.23)"/><path class="cls-1" d="M216.61,38.76c0,10.07-7.14,14.68-14.51,14.68-8,0-14.22-5.28-14.23-14.16s5.85-14.56,14.67-14.57C211,24.71,216.6,30.5,216.61,38.76Zm-19.91.29c0,4.73,2,8.27,5.63,8.27,3.31,0,5.45-3.32,5.45-8.27,0-4.11-1.58-8.27-5.46-8.27C198.22,30.79,196.7,35,196.7,39.05Z" transform="translate(-9.29 -11.23)"/><path class="cls-1" d="M245.57,44c0,3.6.11,6.53.22,8.83h-7.42L238,48.93h-.17a9.83,9.83,0,0,1-8.6,4.51c-5.57,0-9.68-3.49-9.68-12V25.33h8.6V40.11c0,4,1.3,6.41,4.28,6.41a4.59,4.59,0,0,0,4.27-3,4.7,4.7,0,0,0,.28-1.86V25.32h8.6Z" transform="translate(-9.29 -11.23)"/><path class="cls-1" d="M249.05,34.09c0-3.43-.12-6.36-.23-8.77h7.42l.4,3.77h.17a10.06,10.06,0,0,1,8.49-4.39c5.62,0,9.84,3.71,9.84,11.81V52.8H266.6V37.57c0-3.55-1.24-6-4.33-6a4.57,4.57,0,0,0-4.33,3.2A6,6,0,0,0,257.6,37V52.81h-8.54Z" transform="translate(-9.29 -11.23)"/><path class="cls-1" d="M289.2,20.4v7.21h6.1v5.77h-6.1v9.11c0,3,.79,4.43,3.36,4.43a15.4,15.4,0,0,0,2.52-.2l.06,5.92a18.08,18.08,0,0,1-5.54.67,9.32,9.32,0,0,1-6.39-2.16c-1.56-1.49-2.35-3.91-2.35-7.47V33.38h-3.64V27.61h3.64V22.15Z" transform="translate(-9.29 -11.23)"/><path d="M165.08,84c0,11.8-7.42,18.93-18.27,18.9-11,0-17.42-8.1-17.4-18.35,0-10.78,7.15-18.82,18.1-18.79C158.9,65.78,165.1,74.07,165.08,84Zm-26.81.42c0,7,3.39,12,9,12s8.93-5.21,8.94-12.2c0-6.46-3.16-12-8.94-12S138.29,77.42,138.27,84.42Z" transform="translate(-9.29 -11.23)"/><path d="M170.59,102.37l0-19.5h-3.52l0-5.8h3.52v-1c0-3,1-6.41,3.43-8.48a11.36,11.36,0,0,1,7.44-2.51,17.09,17.09,0,0,1,4.46.52l-.35,6.06a9.37,9.37,0,0,0-2.69-.37c-2.76,0-3.92,2-3.92,4.49V77.1h5.4l0,5.8-5.33,0L179,102.4Z" transform="translate(-9.29 -11.23)"/><path d="M190.62,102.42l0-19.5h-3.53l0-5.79h3.52v-1c0-3.06,1-6.42,3.44-8.48a11.33,11.33,0,0,1,7.43-2.52,17.47,17.47,0,0,1,4.46.53l-.35,6a9.4,9.4,0,0,0-2.69-.36c-2.75,0-3.91,2-3.92,4.49v1.29h5.39V83l-5.34,0-.05,19.5Z" transform="translate(-9.29 -11.23)"/><path d="M216.12,69.81c0,2.2-1.77,4-4.52,4s-4.4-1.78-4.34-4,1.72-4,4.41-4A4.1,4.1,0,0,1,216.12,69.81Zm-8.72,32.65.07-25.56,8.36,0-.06,25.56Z" transform="translate(-9.29 -11.23)"/><path d="M240.1,101.88a20.51,20.51,0,0,1-7.49,1.2c-8.7,0-14.24-5.32-14.22-13.8,0-7.87,5.42-14.3,15.44-14.27a19.39,19.39,0,0,1,6.38,1.06l-1.33,6.22a11.25,11.25,0,0,0-4.68-.84c-4.4,0-7.27,3.12-7.23,7.52,0,5,3.29,7.55,7.36,7.56a12.87,12.87,0,0,0,4.79-.81Z" transform="translate(-9.29 -11.23)"/><path d="M249.47,91.78c.27,3.47,3.68,5.13,7.59,5.14a23.9,23.9,0,0,0,7.43-1.09l1.09,5.67a26.47,26.47,0,0,1-9.75,1.63c-9.13,0-14.35-5.32-14.33-13.74,0-6.82,4.27-14.35,13.63-14.33,8.7,0,12,6.8,12,13.46a19.79,19.79,0,0,1-.28,3.3Zm9.87-5.7c0-2-.87-5.45-4.72-5.46-3.52,0-5,3.18-5.19,5.43Z" transform="translate(-9.29 -11.23)"/><path d="M130.68,138.59a21.12,21.12,0,0,0,9.29,2.29c3.85,0,5.9-1.54,5.9-3.91,0-2.21-1.76-3.51-6.19-5-6.19-2.15-10.22-5.43-10.21-10.68,0-6.14,5.34-10.79,14.06-10.76a22.54,22.54,0,0,1,9.46,1.83l-1.86,6.52a18.19,18.19,0,0,0-7.74-1.73c-3.66,0-5.4,1.63-5.41,3.47,0,2.28,2.05,3.3,6.86,5.07,6.56,2.4,9.59,5.71,9.58,10.8,0,6-4.77,11.15-15,11.12A24.66,24.66,0,0,1,129,145.31Z" transform="translate(-9.29 -11.23)"/><path d="M184.37,133.38c0,9.84-7,14.33-14.23,14.31-7.84,0-13.9-5.21-13.88-13.91s5.77-14.26,14.43-14.24C178.92,119.56,184.39,125.25,184.37,133.38Zm-19.48.23c0,4.6,1.92,8.09,5.49,8.1,3.27,0,5.34-3.26,5.35-8.12,0-4-1.51-8.06-5.3-8.07C166.44,125.51,164.9,129.62,164.89,133.61Z" transform="translate(-9.29 -11.23)"/><path d="M212.71,138.55c0,3.51.09,6.4.2,8.64l-7.27,0-.37-3.8h-.18a9.51,9.51,0,0,1-8.4,4.38c-5.48,0-9.46-3.44-9.44-11.72l0-15.84,8.39,0,0,14.48c0,3.94,1.25,6.3,4.21,6.31a4.48,4.48,0,0,0,4.17-2.94,4.57,4.57,0,0,0,.31-1.78l0-16,8.38,0Z" transform="translate(-9.29 -11.23)"/><path d="M215.92,129.14c0-4-.06-6.56-.2-8.88h7.2l.29,5h.21a7.87,7.87,0,0,1,7.28-5.57,7.05,7.05,0,0,1,1.79.16l0,7.87a10.71,10.71,0,0,0-2.26-.24c-3.08,0-5.19,1.62-5.75,4.24a10.37,10.37,0,0,0-.17,1.87l0,13.63-8.38,0Z" transform="translate(-9.29 -11.23)"/><path d="M254.92,146.61a19.56,19.56,0,0,1-7.51,1.24c-8.7,0-14.24-5.36-14.22-13.82,0-7.88,5.43-14.3,15.44-14.28a19.31,19.31,0,0,1,6.39,1.08l-1.32,6.22a11.24,11.24,0,0,0-4.68-.87c-4.43,0-7.28,3.12-7.26,7.53,0,4.95,3.3,7.58,7.36,7.59a12.34,12.34,0,0,0,4.82-.86Z" transform="translate(-9.29 -11.23)"/><path d="M263.19,136.53c.24,3.48,3.67,5.14,7.58,5.15a22.28,22.28,0,0,0,7.42-1.13l1.11,5.67a26.08,26.08,0,0,1-9.76,1.68c-9.13,0-14.35-5.35-14.33-13.74,0-6.85,4.3-14.4,13.61-14.38,8.73,0,12,6.81,12,13.48a16.5,16.5,0,0,1-.31,3.32Zm9.85-5.71c0-2-.87-5.46-4.69-5.47-3.53,0-5,3.22-5.21,5.45Z" transform="translate(-9.29 -11.23)"/><path class="cls-2" d="M300.81,147.11a9.13,9.13,0,0,1-3.32.53c-3.85,0-6.31-2.36-6.3-6.12,0-3.48,2.41-6.33,6.85-6.32a8.63,8.63,0,0,1,2.82.47l-.59,2.76a5.09,5.09,0,0,0-2.07-.38,3.35,3.35,0,0,0,.06,6.69,5.68,5.68,0,0,0,2.12-.37Z" transform="translate(-9.29 -11.23)"/><path class="cls-2" d="M314.38,141.34a6,6,0,0,1-6.31,6.35,5.84,5.84,0,0,1-6.15-6.16c0-3.86,2.55-6.31,6.38-6.3A5.79,5.79,0,0,1,314.38,141.34Zm-8.63.1c0,2.05.84,3.58,2.43,3.59,1.44,0,2.37-1.43,2.37-3.58,0-1.78-.67-3.59-2.35-3.59S305.75,139.68,305.75,141.44Z" transform="translate(-9.29 -11.23)"/><path class="cls-2" d="M316.67,139.32c0-1.49,0-2.76-.09-3.81h3.13l.16,1.61H320a4.14,4.14,0,0,1,3.61-1.87,3.39,3.39,0,0,1,3.26,2h.05a5.45,5.45,0,0,1,1.54-1.43,4.31,4.31,0,0,1,2.27-.58c2.29,0,4,1.62,4,5.18l0,7h-3.61l0-6.48c0-1.73-.55-2.74-1.75-2.74a1.82,1.82,0,0,0-1.71,1.29,3,3,0,0,0-.15,1v7h-3.61v-6.69c0-1.51-.53-2.53-1.7-2.54a1.89,1.89,0,0,0-1.73,1.34,2.33,2.33,0,0,0-.15.93l0,6.95h-3.61Z" transform="translate(-9.29 -11.23)"/><path class="cls-1" d="M282.59,145a2.58,2.58,0,0,1,2.64-2.72,2.71,2.71,0,1,1-2.64,2.72Z" transform="translate(-9.29 -11.23)"/></g><g id="Layer_1" data-name="Layer 1"><path d="M312.07,14.27l7.35.05c1.58,0,5.57.07,7.06.18a77.71,77.71,0,0,1,33.9,8.4c5.61,3.24,9,5.13,14.86,10.53a75.15,75.15,0,0,1,12.87,14.86,68,68,0,0,1,7.69,16.09,72.17,72.17,0,0,1,3.38,18.47l0,.42A74.21,74.21,0,0,1,396,108c-3,7.6-7.11,16.6-11.94,22.14a75.57,75.57,0,0,1-19.72,17.29,70.11,70.11,0,0,1-22.06,8.68,59.23,59.23,0,0,1-10.46,1.6l-5,.52-3.85.1-.8,0h-3.56l-5.83,0-19.68.1-46.66.17-23.33.09H153l-82.09.37H68.51c-1.63-.1-5.82-.15-8.93-.33l-2.78-.18c-.85-.13-2.3-.11-3.1-.31a58.35,58.35,0,0,1-7.08-1.54,51.27,51.27,0,0,1-24.23-15.26A58.36,58.36,0,0,1,16,132.86,42.69,42.69,0,0,1,11.7,123a45.74,45.74,0,0,1-2.15-10.35c-.12-1.75-.3-3.44-.25-5.16s.09-3.39.26-5.09l.54-4.35a52.85,52.85,0,0,1,2.71-9.37,60.17,60.17,0,0,1,5.87-11,46.36,46.36,0,0,1,7.93-9A52.27,52.27,0,0,1,37.38,61.4,49.42,49.42,0,0,1,49,57.05a51.48,51.48,0,0,1,6.44-1c.56-.06,2.34-.22,2.93-.26l3.78-.17h3.65l18.36-.06,88.07.15,44,.09,44,.34,44,.34,5.5,0h1.38c.67,0,1.72,0,2.25,0,1.07.07,3.08.08,4.11.23A29.8,29.8,0,0,1,328,60.3a26.27,26.27,0,0,1,9.83,9.58,24.69,24.69,0,0,1,3,6.3,29.75,29.75,0,0,1,1,6.5v.61a33,33,0,0,1-1.5,9.29,23.14,23.14,0,0,1-4.49,8,27.66,27.66,0,0,1-7.22,6.39,37,37,0,0,1-8.85,3.63,40.19,40.19,0,0,1-9.48.56l-7.95-.12-15.88-.24-15.88-.24c-5.29-.06-10.59-.2-15.88-.32L223,109.48,159.49,108l-15.89-.37-15.88-.43L96,106.29v-.85l127.05.31,63.53.15,15.88,0,7.94,0a41,41,0,0,0,8-.63c3.89-.57,9.07-3.22,12.82-7.82a22.06,22.06,0,0,0,4-6.69,20.78,20.78,0,0,0,1.16-7.69v-.77a19.85,19.85,0,0,0-.9-4.64,16.32,16.32,0,0,0-2.05-4.54,23.39,23.39,0,0,0-16.92-10.59c-.9-.13-4.21-.08-5.11-.13s-4.21-.05-5.15-.05l-4.28,0-41.6.24-88.06.46-88.06.47H61.72c-.89,0-3.57.16-4.46.25a39.12,39.12,0,0,0-5.91.83,41.84,41.84,0,0,0-9.83,3.82,48.66,48.66,0,0,0-8.89,6.27,35,35,0,0,0-7,8.37,47,47,0,0,0-3.5,6.64,42.09,42.09,0,0,0-2.81,9.72l-.42,3.66a43,43,0,0,0,2,17.47,45.16,45.16,0,0,0,7.89,14,48,48,0,0,0,14.19,11.1,42.53,42.53,0,0,0,8.27,3.07,32.37,32.37,0,0,0,4.52,1c1.5.26,1.42.24,5,.63,3.39.33,7.41.47,7.41.47l178.25-.16,46.66.15,20.89.06h6.64l1.93,0h.7l3.52-.08,4.58-.45a69,69,0,0,0,8.62-1.33c9.15-1.8,14.23-4.34,21-8.32a74.35,74.35,0,0,0,17.41-15.12c4.58-6.47,8.45-12.58,10.71-19.93A66.06,66.06,0,0,0,392.55,84l-.07-1c-.53-5.61-1-10.8-2.69-16.2a66.05,66.05,0,0,0-6.9-15.36A63.57,63.57,0,0,0,372.1,38,68.43,68.43,0,0,0,358.41,28a76.66,76.66,0,0,0-15.22-6c-7.77-1.92-11.54-2-17.15-2.5-2.8-.29-6.83-.2-9.69-.24l-7.3-.05-17-.09L155.65,18.9l.08-4.27" transform="translate(-9.29 -11.23)"/><polygon class="cls-3" points="136.54 5.59 150.24 11.19 147.98 5.59 150.24 0 136.54 5.59"/><path d="M382.38,18.06H380V16.39h6.73v1.67h-2.39v7.09h-2Z" transform="translate(-9.29 -11.23)"/><path d="M395.18,21.8c0-1.05-.08-2.33-.08-3.6h0c-.28,1.12-.64,2.36-1,3.39L393,25h-1.55l-.94-3.39c-.28-1-.58-2.28-.79-3.42h0c0,1.18-.09,2.53-.15,3.63l-.16,3.32h-1.83l.56-8.76h2.64l.86,2.93c.27,1,.54,2.1.74,3.13h0c.24-1,.54-2.17.83-3.15l.93-2.91h2.59l.48,8.76h-1.93Z" transform="translate(-9.29 -11.23)"/></g></svg>