<svg xmlns="http://www.w3.org/2000/svg" viewBox="0 0 376.85 271.23"><defs><style>.cls-1{fill:#fff;}</style></defs><title>dw_logo</title><g id="Layer_2_Image" data-name="Layer 2 Image"><path class="cls-1" d="M77.56,113.44c-2.29-3.74,21.1-18.27,22-13.5,12.11,63.35,29.09,103.36,28.69,109.5S90.77,135.08,77.56,113.44Z" transform="translate(-1.51 -1.6)"/><path class="cls-1" d="M366.76,7.55h-.36c-8.39.26-18.2,9.52-21,12.35-11.53,11.64-23.78,25.5-32.31,39-17.52,27.8-28.89,55.1-40.82,85.62-6.61,16.91-7,21.42-13.41,34.45-7.06,14.33-17.84-10.65-19.66-16.52-2.73-8.76-2.73-15.22-5-15.59-1.48-.25-5.38,6.13-6.91,8.27a102.92,102.92,0,0,1-9.3,11,142.71,142.71,0,0,1-15.31,13.11c-5.52,4.09-11.15,8.07-17,11.66a119.87,119.87,0,0,1-12.91,6.87c-2,.91-5,2.12-7,.54-3-3.41,5.1-19.23,7.13-22.93,12.23-22.37,25.5-44.63,34.79-68.44,6.54-16.72,12.89-34.5,12.5-51.8-.21-9.08-3.53-15.25-9.59-17.84a30.45,30.45,0,0,0-12.15-2.25c-.44,0-.89,0-1.34,0-8.08.24-16.36,2.57-23.66,4.63l-1.37.38C156.52,44.51,136,54.36,127.87,58.39c-9.09,4.53-24.6,13.69-32.22,18.45-5.73,3.58-13.13,9.34-19.08,14l-3.41,2.64c-26.58,20.5-49,45-61.45,67.14-4,7.11-9,18.08-10,30-1.19,13.69,3.86,27.78,16.19,34.81,9.53,5.43,20.51,7.44,31.44,7.44A100.89,100.89,0,0,0,61.88,232a96.71,96.71,0,0,0,14.23-2.78,67.11,67.11,0,0,0,8.68-2.84c10.33-4,13.69-6,13.16-6.45a.06.06,0,0,0,0,0c-.66,0-6.42,2.4-10.46,3.69A116.06,116.06,0,0,1,70,228.23a96.82,96.82,0,0,1-16.82,1.44c-2.29,0-4.59-.07-6.89-.23a72.89,72.89,0,0,1-13.46-2,46.74,46.74,0,0,1-12.69-5.39,27.35,27.35,0,0,1-9.23-10.13c-9.57-18.75,3.74-43.93,9.9-53.88,10.2-16.47,28.32-32.83,41.07-43.7,16-13.68,43.54-32.83,61.74-41.18,12-5.49,21.89-9.88,34.82-12.49,12.13-2.46,29.39-3.9,35.54,9.7,3.83,8.48,2.15,20.48.13,29.26-5.73,25-23.1,57.16-40,85.05C144,201.37,131.5,216.5,118.64,231.15a7.2,7.2,0,0,0-1.29,2.28,1.83,1.83,0,0,0,.14,1.76,2.57,2.57,0,0,0,2.22.82h.2c3.46-.11,9.9-2.63,10-2.66a174.52,174.52,0,0,0,18.35-8.73c13.62-7.93,27-16.22,40.32-24.68,11.23-7.14,23.59-18,37-20.43,5.66-1,11.13,1.37,15.17,5.23a32.59,32.59,0,0,1,3.18,3.56,148.78,148.78,0,0,1,9.95,14.24c2.06,3.37,2.78,5,7,11.17.77,1.14,1.46,1.64,2.07,1.64,2.34,0,3.63-7.34,5.19-13.63,10.27-41.41,21.88-82.91,46.7-118,9.65-13.67,26.79-30.56,44.95-31.11h.46a12.07,12.07,0,0,1,5.8,1.4,4.11,4.11,0,0,0,1.86.65h.06c.94,0,1.51-.78,2-1.59,3.75-6.4,11.94-22.81,7-36.95C374.87,10.41,371.49,7.55,366.76,7.55Z" transform="translate(-1.51 -1.6)"/><path class="cls-1" d="M55.8,137.22c0-3.32.14-6.61.39-9.87l-2.56,2.34c-.15,2.5-.23,5-.23,7.53A126.46,126.46,0,0,0,83,218.69l.89-.29,1.58-.51A124.12,124.12,0,0,1,55.8,137.22Z" transform="translate(-1.51 -1.6)"/><path class="cls-1" d="M303.2,114.89A124.65,124.65,0,0,1,95.54,228.41c-.73.33-1.53.68-2.4,1A127.09,127.09,0,0,0,305,111.39C304.37,112.55,303.78,113.72,303.2,114.89Z" transform="translate(-1.51 -1.6)"/><path class="cls-1" d="M63.85,93.16A124.69,124.69,0,0,1,292.66,82.74c.45-.88.91-1.75,1.37-2.63a127.09,127.09,0,0,0-233.82,16C61.41,95.15,62.63,94.15,63.85,93.16Z" transform="translate(-1.51 -1.6)"/><path class="cls-1" d="M50.3,137.22c0-1.5,0-3,.08-4.48-1.83,1.74-3.67,3.53-5.48,5.37a134.91,134.91,0,0,0,29.23,83.13c2.1-.49,4-1,5.7-1.54A129.58,129.58,0,0,1,50.3,137.22Z" transform="translate(-1.51 -1.6)"/><path class="cls-1" d="M55.73,100A130.19,130.19,0,0,1,295.79,76.76q1.51-2.82,3.09-5.64A135.71,135.71,0,0,0,180.51,1.6c-64.26,0-118.21,44.92-132.13,105Q52,103.25,55.73,100Z" transform="translate(-1.51 -1.6)"/><path class="cls-1" d="M307.2,107.15a130.18,130.18,0,0,1,3.51,30.07c0,71.8-58.41,130.21-130.2,130.21A129.76,129.76,0,0,1,90,230.74c-1,.39-2,.78-3,1.21l-2.49,1a135.21,135.21,0,0,0,96,39.93c74.77,0,135.61-60.83,135.61-135.61A135.31,135.31,0,0,0,311,100.39C309.71,102.62,308.44,104.88,307.2,107.15Z" transform="translate(-1.51 -1.6)"/></g></svg>