<svg id="Layer_1" data-name="Layer 1" xmlns="http://www.w3.org/2000/svg" xmlns:xlink="http://www.w3.org/1999/xlink" viewBox="0 0 367.49 164.78"><defs><style>.cls-1{fill:none;clip-rule:evenodd;}.cls-2{clip-path:url(#clip-path);}.cls-3{fill:#6d9046;}.cls-3,.cls-8{fill-rule:evenodd;}.cls-4{clip-path:url(#clip-path-2);}.cls-5{fill:#231f20;}.cls-6{fill:#ed1f24;}.cls-7{fill:#43b649;}</style><clipPath id="clip-path" transform="translate(-1.49 -1.33)"><path class="cls-1" d="M157.8,64.15a22.67,22.67,0,0,1,1,4.72,26.93,26.93,0,0,0,8.77-4.9A75,75,0,0,1,157.8,64.15Z"/></clipPath><clipPath id="clip-path-2" transform="translate(-1.49 -1.33)"><path class="cls-1" d="M237.21,28.77c-7.86,2.34-15.76,4.6-23.5,7.35a90.86,90.86,0,0,0-11.59,4.73c-1.19.62-2.3,1.51-3.77,1.53a46.56,46.56,0,0,1-10.24-.9s.34-.24.4-.27c.69-.25,1.41-.36,2.1-.6s1.64-.67,2.48-1l3.62-1.39q1-.37,2-.78c.81-.32,1.62-.64,2.43-1,1-.42,2-.86,3-1.32,10.78-5,19.06-12.36,22.54-24.15a35.32,35.32,0,0,0,1.56-9.66l-.86.78A249.73,249.73,0,0,0,201.09,31c-4,5.19-9.81,7.27-15.85,9l4.35-3.76c5.53.34,11.18-4.18,11.52-9.19.19-2.77-1.3-4.26-4.05-4-4.36.43-10.89,6.49-8.89,12.07-1.65,1.44-3.27,3-5,4.36a11.27,11.27,0,0,1-4.3,2.52c-4.15,1-8.26,2-12.39,3-1.86.45-3.72.84-5.59,1.26a53.91,53.91,0,0,1,8.94-5.17,66.68,66.68,0,0,0,10.86-5.82c8.84-6.26,13.45-14.84,14.11-25.6l-.22-.27c-1.37,1.38-2.74,2.74-4.1,4.12-6.09,6.26-12.45,12.25-18.22,18.83-1.22,1.39-2.29,2.92-3.38,4.42A26,26,0,0,1,165.15,41a43.4,43.4,0,0,1-5,3.44c-.9.6-1.86,1.12-2.79,1.65a25.5,25.5,0,0,1-3.61,1.74,15.07,15.07,0,0,1-2.2.66,68,68,0,0,0,8-7.56,6.32,6.32,0,0,0,4.15-1.33,12.15,12.15,0,0,0,5-8.43c.19-1.6,0-3.11-1.44-4.1s-3-.66-4.36.11a11.76,11.76,0,0,0-6.25,9.41,4.44,4.44,0,0,0,1.12,3.79A58.23,58.23,0,0,1,151,46.8a19,19,0,0,1-8,4.2,107.52,107.52,0,0,0-10.88,3.69,39.66,39.66,0,0,1,13-10.23,54.09,54.09,0,0,0,10.5-7.33c.44-6,4.82-11.56,10.76-11.91a38.22,38.22,0,0,0,5.84-13.48c-2.72,2.34-5.27,4.34-7.87,6.29-5.39,4-10.89,8-15.75,12.66-3.56,3.44-6.82,7.13-8.47,11.93a6.93,6.93,0,0,1-1.75,2.8A93.12,93.12,0,0,0,131,52.6a29.19,29.19,0,0,1-9.49,7.48A49.28,49.28,0,0,0,117.06,63c-.43.29-.78.74-1.42.82.09-.55.14-1.05.27-1.54,1.15-4.39,2.4-8.71,6.93-11a16.9,16.9,0,0,0,1.74-1.25,64.52,64.52,0,0,0,13.36-12.24A38.44,38.44,0,0,0,145,24.22a.79.79,0,0,0-.12-.94,94.84,94.84,0,0,0-15.29,10.31,38.42,38.42,0,0,0-10.13,12.52c-1.13,2.39-1.32,5-2.3,7.43a71.2,71.2,0,0,0-4.1,12.7,66.48,66.48,0,0,0-8,8.56c-1.18,1.52-2,3.26-3.44,4.61l0,.92c1.28.86,2.16,2.31,3.93,2.56A68,68,0,0,1,113.19,72a5.23,5.23,0,0,1,3.56-2.09c2.13-.22,4.23-.73,6.36-.93,1.51-.15,3.06-.54,4.57-.12a65.48,65.48,0,0,0,12,2.17,35,35,0,0,0,7.46.07,21.42,21.42,0,0,1-2.39-7.25c-4.91.06-9.81-.08-14.32,1.71-4.23,1.69-8.71,1.2-13,2.34,0-.45.21-.57.39-.74a55.5,55.5,0,0,1,13.34-8.88c1.64-.79,3.23-1.89,5.07-2.07,3.83-.4,7.32.82,10.72,2.42a13.52,13.52,0,0,0,3.37,14.93c1.26,1.16,2.69,2.12,4.54,1.56s2.54-2.25,2.76-4a13.86,13.86,0,0,0-3.74-11.24c-1.28-1.46-2.82-2.56-4.94-2.22a1.5,1.5,0,0,1-1-.28,26,26,0,0,0-8.14-2.65c1.88-.63,3.5-1.28,5.17-1.71,7-1.83,13.8-1.58,20.24,2.23a47.41,47.41,0,0,0,14.7,5.93,32.65,32.65,0,0,0,14-.07,56,56,0,0,0-16.41-8.81c-4.07-1.34-8.28-2.22-12.51-1.43-3.43.65-6.63-.47-10-.43a13.65,13.65,0,0,1,2.16-.65c3.63-.81,7.23-1.68,10.85-2.49,2.89-.65,5.65-1.63,8.67-1.18,1.45.21,2.93.29,4.39.51a35.62,35.62,0,0,1,8.49,2.08c.16,4.6,5,9.2,9.49,9.83,2.93.4,4.92-1.73,4.17-4.59a11.55,11.55,0,0,0-6.25-7.36c-2.34-1.23-4.7-1.64-7,.11-3.72-.82-7.31-1.94-11.08-2.27.91-.3,1.78-.54,2.63-.87a7.55,7.55,0,0,1,4.18-.62c1.49.28,3,.5,4.49.76s2.93.57,4.41.75c1.69.2,3.39.27,5.09.44l2,.23c.82.1,1.64.19,2.46.22a45.34,45.34,0,0,0,8.07-.3,45.3,45.3,0,0,0,4.46-.8c7.93-1.81,14.62-5.63,19.39-12.43l2-3v-.31C237.9,28.61,237.55,28.66,237.21,28.77Z"/></clipPath></defs><title>fontana</title><g class="cls-2"><polygon class="cls-3" points="156.31 62.81 156.76 67.54 156.31 67.54 156.31 62.81"/><polygon class="cls-3" points="163.31 62.64 163.78 67.54 156.76 67.54 156.31 62.81 156.31 62.64 163.31 62.64"/><polygon class="cls-3" points="163.78 67.54 163.31 62.64 166.05 62.64 166.05 67.54 163.78 67.54"/></g><g class="cls-4"><polygon class="cls-3" points="100.16 78.69 100.44 81.56 100.16 81.56 100.16 78.69"/><polygon class="cls-3" points="100.16 10.04 194.54 1.06 201.51 74.3 125.22 81.56 100.44 81.56 100.16 78.69 100.16 10.04"/><polygon class="cls-3" points="194.54 1.06 205.64 0 236.76 0 236.76 70.94 201.51 74.3 194.54 1.06"/></g><path class="cls-5" d="M112.7,29.24q5-5.44,9.37-5.45a4.84,4.84,0,0,1,3.24,1,2.83,2.83,0,0,1,1.19,2.05,2.94,2.94,0,0,1-1,2,39.05,39.05,0,0,1-3.92,3.15,41,41,0,0,0-4.6,3.83q-8.17,8-8.17,13.8a7.67,7.67,0,0,0,1.1,4.26c.74,1.13.65,1.84-.25,2.13A2.31,2.31,0,0,1,107.08,55q-1.53-1-1.53-6.81a26.92,26.92,0,0,1,2.73-12.78c.22-.34.59-.93,1.1-1.79a9.75,9.75,0,0,1,1.28-1.78h-6.39q-5.19,0-20.61-1.37T60.42,29.07a55,55,0,0,0-12.1,1Q32.15,32.31,20.48,39T6.6,56a7.8,7.8,0,0,0-.34,2.47,8.71,8.71,0,0,0,.93,3.49,9.6,9.6,0,0,0,2.3,3.24,31,31,0,0,0,4.18,2.89,38.85,38.85,0,0,1,3.74,2.47c.63.51.74.94.34,1.28a1.84,1.84,0,0,1-1.19.51,5.5,5.5,0,0,1-1.28-.17,20,20,0,0,1-9.79-6.39q-4-4.68-4-7.83a15,15,0,0,1,.85-5.37,15.82,15.82,0,0,1,.17-2.72Q5.06,37.76,18,31.11q15.49-8,37.81-8A195.18,195.18,0,0,1,86,26Q103.86,28.91,112.7,29.24ZM46.11,110.31q.51,0,.51,1c0,.68-.79,1.82-2.38,3.41l-1.71,2.55c-3.06,4.66-5.31,7.38-6.72,8.18a7.69,7.69,0,0,1-3.41,1.19,19.72,19.72,0,0,1-3.92-.6c-1.76-.39-2.67-.82-2.72-1.27a10.47,10.47,0,0,1-.09-1.36q0-8.36,15.16-37.64a54.44,54.44,0,0,1-6.22.51A5.19,5.19,0,0,1,31,85a4.21,4.21,0,0,1-1.45-3.32q0-2,3.58-3.75a14.32,14.32,0,0,1,5.53-1.7A4.18,4.18,0,0,1,42,77.87c.91,1.08,1.48,1.61,1.71,1.61h.51Q47.81,73,50.71,67.56t2.89-7.07A4.89,4.89,0,0,0,53.09,58q1-4.94,8.43-12.6t13.54-7.66a14.64,14.64,0,0,1,6.65,2.13q3.92,2.13,3.4,5.53a3.85,3.85,0,0,0-2.21-.85q-11.58,0-31.85,34.74,5.63-.51,11.75-1.53Q83.25,75.23,86,75.23c1.82,0,3,0,3.5.08a3.51,3.51,0,0,1,1.36.43,1.85,1.85,0,0,1,.76.68c.12.68-1.19,1.48-3.91,2.38q-9.89,3.24-40,6.47-14.3,25.89-14.3,31.85c0,1.94.82,2.64,2.47,2.13a8.88,8.88,0,0,0,4.34-3.15Q44.58,110.31,46.11,110.31Z" transform="translate(-1.49 -1.33)"/><path class="cls-5" d="M101.5,106.14c1.54-3.15,2.3-5.58,2.3-7.28a11.46,11.46,0,0,0-.57-4,2.11,2.11,0,0,1,.51-2.49,3.11,3.11,0,0,1,2.75-.76c1.7.42,2.55,2.34,2.55,5.74s-2,7.88-6,13.42q.12,3.45,3.57,3.45t10.48-7.41c2.21-2.56,3.6-4.22,4.15-5s1-1,1.47-.83.64.41.64.58c0,.85-1.54,3.06-4.6,6.64q-7.27,8.94-12.9,8.94a5.36,5.36,0,0,1-5.24-3.19q-2.55,2.68-5,5a16.79,16.79,0,0,1-11.11,4.22,9.61,9.61,0,0,1-5.75-1.66q-4.47-2.68-4.47-9.58,0-7.55,5.11-15.33a36.7,36.7,0,0,1,6.89-8Q92.57,83,98.18,83a9.56,9.56,0,0,1,2.69.38q3.82,1.27,3.83,4.85,0,2.94-1.53,2.94c-.43-.17-.64-.81-.64-1.91,0-1.54-.86-2.3-2.56-2.3q-4.47,0-11.49,8.17t-8.43,16.48a16.71,16.71,0,0,0-.26,3.13,8.83,8.83,0,0,0,1.15,4c.77,1.49,2.19,2.24,4.28,2.24s4.36-.94,6.83-2.81A30,30,0,0,0,98.69,111l-.38-.76a3.67,3.67,0,0,1,.51-3.33A2.29,2.29,0,0,1,101.5,106.14Z" transform="translate(-1.49 -1.33)"/><path class="cls-5" d="M154.64,83.91c2,0,2.94,1,2.94,3.13s-1,5-2.94,8.62-3.4,6.65-4.34,8.94q-2.43,5.88-2.43,9.39c0,2.35.34,3.9,1,4.67q1.92,2,5.24.19a58.7,58.7,0,0,0,9.26-7.16,61.53,61.53,0,0,0,9.52-10.41.93.93,0,0,1,1.21-.32c.47.22.71.43.71.64a1.32,1.32,0,0,1-.26.71,50.46,50.46,0,0,1-6.9,8.81,62.74,62.74,0,0,1-9.58,8.62A15.69,15.69,0,0,1,149,123c-2.89-.09-4.94-.75-6.13-2a6.44,6.44,0,0,1-1.79-4.66,28.26,28.26,0,0,1,.51-5.43,33.11,33.11,0,0,1,1.92-6.07,86.19,86.19,0,0,1,4-8.56c1.15-2,1.73-3.38,1.73-4s-.34-1-1-1c-1.37,0-4,1.66-7.8,5q-4,3.7-11.68,14T120,121.21q-4.61,2.3-5.75,2.3c-.77,0-1.15-.13-1.15-.38a3.44,3.44,0,0,1,.25-1.09c.18-.47,1-2.79,2.5-7s3.1-8.75,4.85-13.73,2.81-8,3.19-9a14.72,14.72,0,0,0,.77-2.62,12.25,12.25,0,0,1,.45-1.85,6.71,6.71,0,0,1,1-1.72,2.36,2.36,0,0,1,1.86-1,12.83,12.83,0,0,1,2.93.25c1.2.21,1.79.75,1.79,1.6a13.15,13.15,0,0,1-1.4,3.89q-1.41,3-8.05,20.63,4.61-5.61,11.62-13a124.34,124.34,0,0,1,11.88-11.18Q151.58,83.91,154.64,83.91Z" transform="translate(-1.49 -1.33)"/><path class="cls-5" d="M190.79,84.42q9.84-.89,11.94-.89c1.41,0,2.11.21,2.11.64s-1,1-3,1.59S195,87,187.21,87.87c-.42.77-.93,1.66-1.53,2.68a19.36,19.36,0,0,0-2,3.71q-7.27,14.56-7.67,18.52a29.42,29.42,0,0,0-.12,2.94,4.28,4.28,0,0,0,1,2.94q1.78,2,5.11.25a53.81,53.81,0,0,0,9.26-7.15,68.8,68.8,0,0,0,9.64-10.48.94.94,0,0,1,1.28-.25q1.92.9-6.64,10.09-8.18,8.82-13.67,10.86a16.64,16.64,0,0,1-5.36,1.15,6.56,6.56,0,0,1-6.77-4.86,7.58,7.58,0,0,1-.26-2.17q0-4.47,4.09-13.54-.65,1.41-5,6.39c-.77.85-1.37.85-1.79,0a1.53,1.53,0,0,1-.13-.7,1.91,1.91,0,0,1,.51-1.09Q173.42,99.38,177,94c0-.08.93-1.87,2.81-5.36a13.38,13.38,0,0,1-2.62.25,2.31,2.31,0,0,1-2-.83,1.82,1.82,0,0,1-.13-2c.6-1.36,2.85-2.12,6.77-2.3a.51.51,0,0,1,.51-.25l6.39-11.88c.34-.68.72-1.38,1.15-2.11l1-1.66c.21-.38.44-.79.7-1.21a5,5,0,0,1,.64-.9l.51-.51c.34-.51,1.34-.76,3-.76s2.79.47,3.38,1.4a2.92,2.92,0,0,1,.39,1.73,5.23,5.23,0,0,1-.9,2.68,6.23,6.23,0,0,1-1.91,2.11,3.63,3.63,0,0,0-1.41,1.4l-6.13,10.73Z" transform="translate(-1.49 -1.33)"/><path class="cls-5" d="M204.71,121.59a9.66,9.66,0,0,1-4.4-1.21,11.56,11.56,0,0,1-4-3.45,7.91,7.91,0,0,1-1.66-4.79,10.78,10.78,0,0,1,1.15-4.85A33.44,33.44,0,0,1,204,96.88a73.89,73.89,0,0,1,11.82-8.63,41.13,41.13,0,0,1,9.71-4.47,28.89,28.89,0,0,1,7-.89,9.78,9.78,0,0,1,5.81,1.72c1.62,1.15,2.43,2.37,2.43,3.64a1.36,1.36,0,0,1-.13.77c-.09.09-.3,0-.64-.13q-1.53-2.42-6.32-2.42a24.12,24.12,0,0,0-10.86,3.13,55.76,55.76,0,0,0-11.43,7.85A50.31,50.31,0,0,0,203.5,107c-2.26,3.53-3.38,6.11-3.38,7.73q0,4.72,2.68,4.72t8.17-4.34a159.89,159.89,0,0,0,12.39-11.24Q235.12,91.2,236,91.19a10,10,0,0,1,3.7.9c1.45.59,1.92,1.32,1.41,2.17q-6.51,9.19-7.66,18.52a26.34,26.34,0,0,0-.13,2.94,4.28,4.28,0,0,0,1,2.94c1.28,1.36,3,1.44,5.24.25a53.81,53.81,0,0,0,9.26-7.15,63.18,63.18,0,0,0,9.51-10.48.87.87,0,0,1,1.15-.32c.43.22.64.41.64.58q0,1.92-6.07,8.37a75.16,75.16,0,0,1-9.26,8.75q-6,4.47-11.11,4.47-4.86,0-6.51-4.86a14,14,0,0,1-.39-3.45,34.13,34.13,0,0,1,2.43-12.13,48.7,48.7,0,0,0-4.73,5.11,75.19,75.19,0,0,1-9.77,9.32Q209.19,121.59,204.71,121.59Z" transform="translate(-1.49 -1.33)"/><path class="cls-5" d="M291.45,83.91c1.95,0,2.93,1,2.93,3.13s-1,5-2.93,8.62-3.41,6.65-4.35,8.94q-2.43,5.88-2.43,9.39c0,2.35.34,3.9,1,4.67,1.27,1.36,3,1.42,5.23.19a58.67,58.67,0,0,0,9.27-7.16,61.44,61.44,0,0,0,9.51-10.41.94.94,0,0,1,1.21-.32c.47.22.71.43.71.64a1.32,1.32,0,0,1-.26.71,50.46,50.46,0,0,1-6.9,8.81,62.74,62.74,0,0,1-9.58,8.62,15.69,15.69,0,0,1-9.07,3.26c-2.89-.09-4.94-.75-6.13-2a6.44,6.44,0,0,1-1.78-4.66,27.48,27.48,0,0,1,.51-5.43,32.24,32.24,0,0,1,1.91-6.07,88.2,88.2,0,0,1,4-8.56c1.14-2,1.72-3.38,1.72-4s-.34-1-1-1q-2,0-7.79,5-4,3.7-11.69,14t-8.75,10.92c-3.07,1.53-5,2.3-5.75,2.3s-1.15-.13-1.15-.38a3.52,3.52,0,0,1,.26-1.09l2.49-7q2.23-6.26,4.85-13.73t3.19-9a14.72,14.72,0,0,0,.77-2.62,13.59,13.59,0,0,1,.45-1.85,6.49,6.49,0,0,1,1-1.72,2.33,2.33,0,0,1,1.85-1,13,13,0,0,1,2.94.25c1.19.21,1.78.75,1.78,1.6a12.84,12.84,0,0,1-1.4,3.89q-1.41,3-8.05,20.63,4.61-5.61,11.63-13a122,122,0,0,1,11.88-11.18Q288.38,83.91,291.45,83.91Z" transform="translate(-1.49 -1.33)"/><path class="cls-5" d="M313.54,121.59a9.66,9.66,0,0,1-4.4-1.21,11.56,11.56,0,0,1-4-3.45,7.85,7.85,0,0,1-1.66-4.79,10.65,10.65,0,0,1,1.15-4.85,33.3,33.3,0,0,1,8.24-10.41,73.89,73.89,0,0,1,11.82-8.63,41.1,41.1,0,0,1,9.7-4.47,29,29,0,0,1,7-.89,9.78,9.78,0,0,1,5.81,1.72c1.61,1.15,2.42,2.37,2.42,3.64a1.4,1.4,0,0,1-.12.77c-.09.09-.3,0-.64-.13q-1.53-2.42-6.32-2.42a24.12,24.12,0,0,0-10.86,3.13,55.76,55.76,0,0,0-11.43,7.85,49.56,49.56,0,0,0-7.86,9.52q-3.39,5.3-3.39,7.73,0,4.72,2.69,4.72t8.17-4.34a159.89,159.89,0,0,0,12.39-11.24q11.76-12.65,12.65-12.65a10,10,0,0,1,3.7.9c1.45.59,1.92,1.32,1.41,2.17q-6.52,9.19-7.67,18.52a29.42,29.42,0,0,0-.12,2.94,4.28,4.28,0,0,0,1,2.94c1.28,1.36,3,1.44,5.24.25a53.81,53.81,0,0,0,9.26-7.15,63.18,63.18,0,0,0,9.51-10.48.87.87,0,0,1,1.15-.32c.43.22.64.41.64.58q0,1.92-6.07,8.37a75.16,75.16,0,0,1-9.26,8.75q-6,4.47-11.11,4.47-4.86,0-6.52-4.86a14.51,14.51,0,0,1-.38-3.45,34.13,34.13,0,0,1,2.43-12.13,48.7,48.7,0,0,0-4.73,5.11,75.83,75.83,0,0,1-9.77,9.32Q318,121.59,313.54,121.59Z" transform="translate(-1.49 -1.33)"/><path class="cls-5" d="M30.58,160.46v.45H23.51v-.45h.59a1.75,1.75,0,0,0,1.48-.6,3.68,3.68,0,0,0,.29-1.88V147.32a5.33,5.33,0,0,0-.16-1.66,1.06,1.06,0,0,0-.49-.52,2.28,2.28,0,0,0-1.12-.29h-.59v-.45h7.07v.45H30a1.71,1.71,0,0,0-1.47.59,3.51,3.51,0,0,0-.31,1.88V158a5.33,5.33,0,0,0,.16,1.66,1.06,1.06,0,0,0,.51.52,2.2,2.2,0,0,0,1.11.3Z" transform="translate(-1.49 -1.33)"/><path class="cls-5" d="M48.44,144.4l.18,3.87h-.46a4.5,4.5,0,0,0-.37-1.46,2.4,2.4,0,0,0-1-1,3.43,3.43,0,0,0-1.65-.34H42.81V158a3.35,3.35,0,0,0,.33,1.9,1.85,1.85,0,0,0,1.43.52h.57v.45h-7v-.45h.58a1.69,1.69,0,0,0,1.49-.64,3.67,3.67,0,0,0,.27-1.78V145.43h-2a5.62,5.62,0,0,0-1.64.17,2.23,2.23,0,0,0-1.08.89,3.54,3.54,0,0,0-.54,1.78h-.46L35,144.4Z" transform="translate(-1.49 -1.33)"/><path class="cls-5" d="M61.47,155.38H55.08L54,158a4.22,4.22,0,0,0-.41,1.44.83.83,0,0,0,.36.66,3.13,3.13,0,0,0,1.55.38v.45h-5.2v-.45A2.81,2.81,0,0,0,51.6,160,7.67,7.67,0,0,0,53,157.61L58.78,144h.43L65,157.75a6.14,6.14,0,0,0,1.26,2.15,2.59,2.59,0,0,0,1.57.56v.45H61.28v-.45a2.55,2.55,0,0,0,1.33-.33.87.87,0,0,0,.35-.69,5,5,0,0,0-.49-1.69Zm-.34-.9-2.8-6.68-2.87,6.68Z" transform="translate(-1.49 -1.33)"/><path class="cls-5" d="M85.19,156.34l.4.09-1.41,4.48H71.39v-.45H72a1.65,1.65,0,0,0,1.5-.69,4,4,0,0,0,.25-1.8V147.32a3.41,3.41,0,0,0-.34-1.94,1.76,1.76,0,0,0-1.41-.53h-.62v-.45h7.48v.45a4.59,4.59,0,0,0-1.85.24,1.53,1.53,0,0,0-.72.64,5.28,5.28,0,0,0-.2,1.87V158a3.34,3.34,0,0,0,.2,1.39.82.82,0,0,0,.45.38,8,8,0,0,0,1.9.12h1.2a8.63,8.63,0,0,0,2.67-.28,3.54,3.54,0,0,0,1.4-1A8.55,8.55,0,0,0,85.19,156.34Z" transform="translate(-1.49 -1.33)"/><path class="cls-5" d="M96.64,160.46v.45H89.56v-.45h.59a1.75,1.75,0,0,0,1.48-.6,3.68,3.68,0,0,0,.29-1.88V147.32a5.78,5.78,0,0,0-.15-1.66,1.08,1.08,0,0,0-.5-.52,2.26,2.26,0,0,0-1.12-.29h-.59v-.45h7.08v.45H96a1.74,1.74,0,0,0-1.47.59,3.51,3.51,0,0,0-.31,1.88V158a5.33,5.33,0,0,0,.16,1.66,1.06,1.06,0,0,0,.51.52,2.2,2.2,0,0,0,1.11.3Z" transform="translate(-1.49 -1.33)"/><path class="cls-5" d="M111.47,155.38h-6.39L104,158a4,4,0,0,0-.41,1.44.85.85,0,0,0,.35.66,3.18,3.18,0,0,0,1.56.38v.45h-5.2v-.45a2.86,2.86,0,0,0,1.34-.48,7.5,7.5,0,0,0,1.37-2.37L108.78,144h.43L115,157.75a6.46,6.46,0,0,0,1.26,2.15,2.65,2.65,0,0,0,1.58.56v.45h-6.51v-.45a2.58,2.58,0,0,0,1.33-.33.87.87,0,0,0,.35-.69,5.22,5.22,0,0,0-.49-1.69Zm-.34-.9-2.8-6.68-2.87,6.68Z" transform="translate(-1.49 -1.33)"/><path class="cls-5" d="M120.56,144.4H125l10.1,12.38v-9.52a3.22,3.22,0,0,0-.35-1.9,1.8,1.8,0,0,0-1.42-.51h-.57v-.45h5.74v.45H138a1.67,1.67,0,0,0-1.48.63,3.67,3.67,0,0,0-.27,1.78v13.91h-.44l-10.89-13.29V158a3.35,3.35,0,0,0,.33,1.9,1.85,1.85,0,0,0,1.43.52h.58v.45h-5.75v-.45h.58a1.69,1.69,0,0,0,1.49-.64,3.67,3.67,0,0,0,.27-1.78V146.56a7.58,7.58,0,0,0-1.09-1.11,4.51,4.51,0,0,0-1.09-.5,4,4,0,0,0-1.07-.1Z" transform="translate(-1.49 -1.33)"/><path class="cls-5" d="M177.47,160.91h-4.41l-5.59-7.72-1,0h-.72V158a3.45,3.45,0,0,0,.34,1.94,1.74,1.74,0,0,0,1.39.54h.65v.45H161v-.45h.63a1.65,1.65,0,0,0,1.49-.69,3.8,3.8,0,0,0,.26-1.79V147.32a3.45,3.45,0,0,0-.34-1.94,1.78,1.78,0,0,0-1.41-.53H161v-.45h6a14.23,14.23,0,0,1,3.88.38,4.44,4.44,0,0,1,2.12,1.41,3.67,3.67,0,0,1,.87,2.45,3.84,3.84,0,0,1-1,2.65,5.63,5.63,0,0,1-3.07,1.58l3.41,4.74a8.44,8.44,0,0,0,2,2.16,5.05,5.05,0,0,0,2.19.69Zm-11.73-8.49h.69a5.38,5.38,0,0,0,3.56-1,3.27,3.27,0,0,0,1.2-2.61,3.41,3.41,0,0,0-1-2.51,3.45,3.45,0,0,0-2.56-1,11.18,11.18,0,0,0-1.92.23Z" transform="translate(-1.49 -1.33)"/><path class="cls-5" d="M185.28,145.3v6.52h3.63a3,3,0,0,0,1.89-.42,2.77,2.77,0,0,0,.7-2H192v5.75h-.45a6.42,6.42,0,0,0-.34-1.55,1.57,1.57,0,0,0-.72-.67,3.68,3.68,0,0,0-1.53-.24h-3.63v5.44a4.86,4.86,0,0,0,.1,1.34.72.72,0,0,0,.34.37,2,2,0,0,0,.92.14h2.8a7.64,7.64,0,0,0,2-.19,3.08,3.08,0,0,0,1.22-.77,9.5,9.5,0,0,0,1.54-2.27h.49l-1.43,4.14H180.58v-.45h.58a2.4,2.4,0,0,0,1.11-.28,1,1,0,0,0,.53-.59,5.45,5.45,0,0,0,.14-1.59V147.27a3.61,3.61,0,0,0-.31-1.94,1.92,1.92,0,0,0-1.47-.48h-.58v-.45H193.3l.19,3.61H193a6,6,0,0,0-.56-1.79,2,2,0,0,0-.92-.74,5.64,5.64,0,0,0-1.72-.18Z" transform="translate(-1.49 -1.33)"/><path class="cls-5" d="M209.55,144v5.71h-.45a7.14,7.14,0,0,0-.78-2.62,4.17,4.17,0,0,0-1.62-1.55,4.47,4.47,0,0,0-2.16-.57,2.93,2.93,0,0,0-2.1.78,2.35,2.35,0,0,0-.83,1.75,2.08,2.08,0,0,0,.53,1.38,13.49,13.49,0,0,0,3.59,2.44,24.92,24.92,0,0,1,3.16,1.9,4.54,4.54,0,0,1,1.3,1.57,4,4,0,0,1,.46,1.88,4.3,4.3,0,0,1-1.46,3.24,5.29,5.29,0,0,1-3.74,1.35,7.24,7.24,0,0,1-1.35-.11,14,14,0,0,1-1.57-.44,6.64,6.64,0,0,0-1.5-.38.65.65,0,0,0-.48.18,1.36,1.36,0,0,0-.26.75h-.46v-5.66h.46a7.89,7.89,0,0,0,.85,2.66,4.08,4.08,0,0,0,1.64,1.47,5,5,0,0,0,2.41.58,3.42,3.42,0,0,0,2.41-.8,2.49,2.49,0,0,0,.88-1.9,2.58,2.58,0,0,0-.33-1.23,3.75,3.75,0,0,0-1.05-1.16,29.67,29.67,0,0,0-2.59-1.55,24.7,24.7,0,0,1-3-1.89,5.07,5.07,0,0,1-1.36-1.56,3.85,3.85,0,0,1-.46-1.88A4.07,4.07,0,0,1,201,145.3a4.89,4.89,0,0,1,3.47-1.28,6.94,6.94,0,0,1,2.79.64,2.7,2.7,0,0,0,1,.31.77.77,0,0,0,.52-.19,1.55,1.55,0,0,0,.32-.76Z" transform="translate(-1.49 -1.33)"/><path class="cls-5" d="M229.23,144.4l.19,3.87H229a4.84,4.84,0,0,0-.36-1.46,2.42,2.42,0,0,0-1-1,3.38,3.38,0,0,0-1.65-.34h-2.32V158a3.35,3.35,0,0,0,.33,1.9,1.83,1.83,0,0,0,1.42.52h.57v.45h-7v-.45h.59a1.68,1.68,0,0,0,1.48-.64,3.67,3.67,0,0,0,.27-1.78V145.43h-2a5.7,5.7,0,0,0-1.65.17,2.23,2.23,0,0,0-1.08.89,3.64,3.64,0,0,0-.54,1.78h-.46l.19-3.87Z" transform="translate(-1.49 -1.33)"/><path class="cls-5" d="M242.27,155.38h-6.39l-1.13,2.6a4.22,4.22,0,0,0-.41,1.44.83.83,0,0,0,.36.66,3.17,3.17,0,0,0,1.55.38v.45h-5.2v-.45a2.81,2.81,0,0,0,1.34-.48,7.47,7.47,0,0,0,1.38-2.37L239.58,144H240l5.75,13.73A6.14,6.14,0,0,0,247,159.9a2.62,2.62,0,0,0,1.58.56v.45h-6.52v-.45a2.62,2.62,0,0,0,1.34-.33.86.86,0,0,0,.34-.69,5.13,5.13,0,0,0-.48-1.69Zm-.34-.9-2.8-6.68-2.88,6.68Z" transform="translate(-1.49 -1.33)"/><path class="cls-5" d="M263.58,144.85v-.45h5.84v.45h-.62a1.67,1.67,0,0,0-1.49.81,3.71,3.71,0,0,0-.26,1.75v6.7a11.87,11.87,0,0,1-.49,3.86,4.84,4.84,0,0,1-1.94,2.34,6.83,6.83,0,0,1-3.92,1,7.46,7.46,0,0,1-4.11-.94,5.13,5.13,0,0,1-2-2.52,14,14,0,0,1-.39-4.07v-6.45a3.24,3.24,0,0,0-.42-2,1.73,1.73,0,0,0-1.36-.47h-.62v-.45H259v.45h-.63a1.63,1.63,0,0,0-1.46.64,3.62,3.62,0,0,0-.31,1.83v7.19a15.68,15.68,0,0,0,.18,2.21,4.65,4.65,0,0,0,.64,1.93,3.43,3.43,0,0,0,1.33,1.15,4.64,4.64,0,0,0,2.14.45,5.9,5.9,0,0,0,2.9-.71,3.81,3.81,0,0,0,1.75-1.81A10.47,10.47,0,0,0,266,154v-6.68a3.38,3.38,0,0,0-.35-1.94,1.76,1.76,0,0,0-1.41-.53Z" transform="translate(-1.49 -1.33)"/><path class="cls-5" d="M289.36,160.91H285l-5.59-7.72-1,0h-.72V158a3.36,3.36,0,0,0,.34,1.94,1.73,1.73,0,0,0,1.39.54H280v.45h-7.07v-.45h.62a1.67,1.67,0,0,0,1.5-.69,3.85,3.85,0,0,0,.25-1.79V147.32a3.36,3.36,0,0,0-.34-1.94,1.78,1.78,0,0,0-1.41-.53h-.62v-.45h6a14.13,14.13,0,0,1,3.88.38,4.44,4.44,0,0,1,2.12,1.41,3.67,3.67,0,0,1,.87,2.45,3.88,3.88,0,0,1-1,2.65,5.66,5.66,0,0,1-3.08,1.58l3.41,4.74a8.44,8.44,0,0,0,2,2.16,5.05,5.05,0,0,0,2.19.69Zm-11.72-8.49h.68a5.38,5.38,0,0,0,3.56-1,3.27,3.27,0,0,0,1.2-2.61,3.37,3.37,0,0,0-1-2.51,3.44,3.44,0,0,0-2.56-1,11.09,11.09,0,0,0-1.91.23Z" transform="translate(-1.49 -1.33)"/><path class="cls-5" d="M303.37,155.38H297l-1.12,2.6a4.07,4.07,0,0,0-.42,1.44.83.83,0,0,0,.36.66,3.17,3.17,0,0,0,1.55.38v.45h-5.19v-.45a2.86,2.86,0,0,0,1.34-.48,7.5,7.5,0,0,0,1.37-2.37L300.68,144h.43l5.74,13.73a6.46,6.46,0,0,0,1.26,2.15,2.65,2.65,0,0,0,1.58.56v.45h-6.52v-.45a2.59,2.59,0,0,0,1.34-.33.87.87,0,0,0,.35-.69,5.22,5.22,0,0,0-.49-1.69Zm-.34-.9-2.8-6.68-2.88,6.68Z" transform="translate(-1.49 -1.33)"/><path class="cls-5" d="M312.46,144.4h4.48L327,156.78v-9.52a3.24,3.24,0,0,0-.34-1.9,1.8,1.8,0,0,0-1.42-.51h-.57v-.45h5.74v.45h-.58a1.7,1.7,0,0,0-1.49.63,3.67,3.67,0,0,0-.27,1.78v13.91h-.43l-10.89-13.29V158a3.35,3.35,0,0,0,.33,1.9,1.83,1.83,0,0,0,1.42.52h.59v.45h-5.75v-.45h.57a1.7,1.7,0,0,0,1.5-.64,3.67,3.67,0,0,0,.27-1.78V146.56a7.58,7.58,0,0,0-1.09-1.11,4.51,4.51,0,0,0-1.09-.5,4.09,4.09,0,0,0-1.07-.1Z" transform="translate(-1.49 -1.33)"/><path class="cls-5" d="M348,144.4l.18,3.87h-.46a4.84,4.84,0,0,0-.36-1.46,2.48,2.48,0,0,0-1-1,3.43,3.43,0,0,0-1.65-.34h-2.32V158a3.35,3.35,0,0,0,.33,1.9,1.81,1.81,0,0,0,1.42.52h.57v.45h-7v-.45h.59a1.68,1.68,0,0,0,1.48-.64,3.67,3.67,0,0,0,.27-1.78V145.43h-2a5.62,5.62,0,0,0-1.64.17,2.23,2.23,0,0,0-1.08.89,3.64,3.64,0,0,0-.54,1.78h-.46l.19-3.87Z" transform="translate(-1.49 -1.33)"/><rect class="cls-6" x="21.4" y="132.07" width="117.26" height="2.3"/><rect class="cls-7" x="158.73" y="132.07" width="189.77" height="2.3"/><path class="cls-8" d="M146,155.44a3,3,0,0,0,.06-.42,4.75,4.75,0,0,1,1.33-3.21l.38-.43a2.27,2.27,0,0,0,.63-1.7c-.07-2.17-.11-4.34-.22-6.5-.08-1.61-.23-3.23-.38-4.84s-.34-2.92-.46-4.39a18.32,18.32,0,0,1,.18-5.58,2,2,0,0,1,.92-1.35A1.67,1.67,0,0,1,151,128a10.16,10.16,0,0,1,.35,1.76,21,21,0,0,1-.11,5.19c-.22,1.88-.41,3.76-.61,5.64-.31,3-.41,5.92-.43,8.9a3.19,3.19,0,0,0,.78,2.17c.39.48.78,1,1.14,1.48a2.68,2.68,0,0,1,.44,1.53c0,1.51,0,3,0,4.53,0,1.2-.13,2.41-.24,3.62-.1,1-.26,2-.4,2.95a1.94,1.94,0,0,1-.12.39h-.09a2.44,2.44,0,0,1-.07-.46c0-1.33,0-2.66-.08-4,0-1.17-.09-2.35-.15-3.52A1.76,1.76,0,0,0,151,157a2.27,2.27,0,0,0-.19.39,10.31,10.31,0,0,0-.19,1.24c-.09,1.33-.15,2.68-.24,4-.06,1-.13,2-.2,3,0,.13-.06.25-.08.37H150c0-.23-.07-.45-.07-.68,0-1.4,0-2.79-.08-4.18,0-1.06-.1-2.12-.15-3.19a2.13,2.13,0,0,0-.1-.56c0-.15,0-.39-.25-.37s-.2.22-.24.35a4.88,4.88,0,0,0-.15.85c-.08,1.12-.15,2.25-.2,3.37s-.06,2-.1,3c0,.48-.08,1-.12,1.42l-.1,0a2,2,0,0,1-.1-.41c-.05-1-.1-1.94-.14-2.9-.05-1.43-.09-2.85-.16-4.28a8,8,0,0,0-.14-1.07,2.3,2.3,0,0,0-.16-.39.66.66,0,0,0-.29.6c-.1,1.07-.21,2.14-.28,3.21-.07,1.37-.1,2.73-.16,4.1,0,.37-.06.75-.1,1.12h-.11c0-.19-.09-.39-.12-.58-.34-2.33-.49-4.67-.6-7,0-.15,0-.3-.06-.45Z" transform="translate(-1.49 -1.33)"/></svg>