<svg id="e0gsk083ze70i1" xmlns="http://www.w3.org/2000/svg" xmlns:xlink="http://www.w3.org/1999/xlink" viewBox="0 0 671.410000 370" shape-rendering="geometricPrecision" text-rendering="geometricPrecision"><style><![CDATA[#e0gsk083ze70i2 {animation: e0gsk083ze70i2_c_o 7000ms linear 1 normal forwards}@keyframes e0gsk083ze70i2_c_o { 0% {opacity: 0} 8.571429% {opacity: 0} 17.142857% {opacity: 1} 100% {opacity: 1} }#e0gsk083ze70i6_to {animation: e0gsk083ze70i6_to__to 7000ms linear 1 normal forwards}@keyframes e0gsk083ze70i6_to__to { 0% {transform: translate(-2.770000px,-16.460000px)} 25.714286% {transform: translate(-2.770000px,-16.460000px);animation-timing-function: cubic-bezier(0.420000,0,0.580000,1)} 31.428571% {transform: translate(89.237484px,214.379963px)} 100% {transform: translate(89.237484px,214.379963px)} }#e0gsk083ze70i6_ts {animation: e0gsk083ze70i6_ts__ts 7000ms linear 1 normal forwards}@keyframes e0gsk083ze70i6_ts__ts { 0% {transform: scale(1,1)} 25.714286% {transform: scale(1,1);animation-timing-function: cubic-bezier(0.420000,0,0.580000,1)} 31.428571% {transform: scale(0.570000,0.570000)} 100% {transform: scale(0.570000,0.570000)} }#e0gsk083ze70i6 {animation: e0gsk083ze70i6_f_p 7000ms linear 1 normal forwards}@keyframes e0gsk083ze70i6_f_p { 0% {fill: rgb(38,255,107)} 74.285714% {fill: rgb(38,255,107)} 88.571429% {fill: rgb(255,255,255)} 100% {fill: rgb(255,255,255)} }#e0gsk083ze70i7_to {animation: e0gsk083ze70i7_to__to 7000ms linear 1 normal forwards}@keyframes e0gsk083ze70i7_to__to { 0% {transform: translate(-2.770000px,-16.460000px)} 28.571429% {transform: translate(-2.770000px,-16.460000px);animation-timing-function: cubic-bezier(0.420000,0,0.580000,1)} 34.285714% {transform: translate(443.416400px,214.692109px)} 100% {transform: translate(443.416400px,214.692109px)} }#e0gsk083ze70i7_ts {animation: e0gsk083ze70i7_ts__ts 7000ms linear 1 normal forwards}@keyframes e0gsk083ze70i7_ts__ts { 0% {transform: scale(1,1)} 28.571429% {transform: scale(1,1);animation-timing-function: cubic-bezier(0.420000,0,0.580000,1)} 34.285714% {transform: scale(0.570000,0.570000)} 100% {transform: scale(0.570000,0.570000)} }#e0gsk083ze70i7 {animation: e0gsk083ze70i7_f_p 7000ms linear 1 normal forwards}@keyframes e0gsk083ze70i7_f_p { 0% {fill: rgb(38,255,107)} 74.285714% {fill: rgb(38,255,107)} 88.571429% {fill: rgb(255,255,255)} 100% {fill: rgb(255,255,255)} }#e0gsk083ze70i8_to {animation: e0gsk083ze70i8_to__to 7000ms linear 1 normal forwards}@keyframes e0gsk083ze70i8_to__to { 0% {transform: translate(-2.770000px,-16.460000px)} 31.428571% {transform: translate(-2.770000px,-16.460000px);animation-timing-function: cubic-bezier(0.420000,0,0.580000,1)} 38.571429% {transform: translate(208.480119px,299.161798px)} 100% {transform: translate(208.480119px,299.161798px)} }#e0gsk083ze70i8_ts {animation: e0gsk083ze70i8_ts__ts 7000ms linear 1 normal forwards}@keyframes e0gsk083ze70i8_ts__ts { 0% {transform: scale(1,1)} 31.428571% {transform: scale(1,1);animation-timing-function: cubic-bezier(0.420000,0,0.580000,1)} 38.571429% {transform: scale(0.570000,0.570000)} 100% {transform: scale(0.570000,0.570000)} }#e0gsk083ze70i8 {animation: e0gsk083ze70i8_f_p 7000ms linear 1 normal forwards}@keyframes e0gsk083ze70i8_f_p { 0% {fill: rgb(38,255,107)} 82.857143% {fill: rgb(38,255,107)} 97.142857% {fill: rgb(255,255,255)} 100% {fill: rgb(255,255,255)} }#e0gsk083ze70i9_to {animation: e0gsk083ze70i9_to__to 7000ms linear 1 normal forwards}@keyframes e0gsk083ze70i9_to__to { 0% {transform: translate(-2.770000px,-16.460000px)} 35.714286% {transform: translate(-2.770000px,-16.460000px);animation-timing-function: cubic-bezier(0.420000,0,0.580000,1)} 41.428571% {transform: translate(167.040257px,129.116534px)} 100% {transform: translate(167.040257px,129.116534px)} }#e0gsk083ze70i9_ts {animation: e0gsk083ze70i9_ts__ts 7000ms linear 1 normal forwards}@keyframes e0gsk083ze70i9_ts__ts { 0% {transform: scale(1,1)} 35.714286% {transform: scale(1,1);animation-timing-function: cubic-bezier(0.420000,0,0.580000,1)} 41.428571% {transform: scale(0.570000,0.570000)} 100% {transform: scale(0.570000,0.570000)} }#e0gsk083ze70i9 {animation: e0gsk083ze70i9_f_p 7000ms linear 1 normal forwards}@keyframes e0gsk083ze70i9_f_p { 0% {fill: rgb(38,255,107)} 65.714286% {fill: rgb(38,255,107)} 80% {fill: rgb(255,255,255)} 100% {fill: rgb(255,255,255)} }#e0gsk083ze70i10_to {animation: e0gsk083ze70i10_to__to 7000ms linear 1 normal forwards}@keyframes e0gsk083ze70i10_to__to { 0% {transform: translate(-2.770000px,-16.460000px)} 38.571429% {transform: translate(-2.770000px,-16.460000px);animation-timing-function: cubic-bezier(0.420000,0,0.580000,1)} 44.285714% {transform: translate(-22.127054px,127.646898px)} 100% {transform: translate(-22.127054px,127.646898px)} }#e0gsk083ze70i10_ts {animation: e0gsk083ze70i10_ts__ts 7000ms linear 1 normal forwards}@keyframes e0gsk083ze70i10_ts__ts { 0% {transform: scale(1,1)} 38.571429% {transform: scale(1,1);animation-timing-function: cubic-bezier(0.420000,0,0.580000,1)} 44.285714% {transform: scale(0.580000,0.580000)} 100% {transform: scale(0.580000,0.580000)} }#e0gsk083ze70i10 {animation: e0gsk083ze70i10_f_p 7000ms linear 1 normal forwards}@keyframes e0gsk083ze70i10_f_p { 0% {fill: rgb(38,255,107)} 65.714286% {fill: rgb(38,255,107)} 80% {fill: rgb(255,255,255)} 100% {fill: rgb(255,255,255)} }#e0gsk083ze70i11_to {animation: e0gsk083ze70i11_to__to 7000ms linear 1 normal forwards}@keyframes e0gsk083ze70i11_to__to { 0% {transform: translate(-2.770000px,-16.460000px)} 41.428571% {transform: translate(-2.770000px,-16.460000px);animation-timing-function: cubic-bezier(0.420000,0,0.580000,1)} 47.142857% {transform: translate(76.296850px,214.145959px)} 100% {transform: translate(76.296850px,214.145959px)} }#e0gsk083ze70i11_ts {animation: e0gsk083ze70i11_ts__ts 7000ms linear 1 normal forwards}@keyframes e0gsk083ze70i11_ts__ts { 0% {transform: scale(1,1)} 41.428571% {transform: scale(1,1);animation-timing-function: cubic-bezier(0.420000,0,0.580000,1)} 47.142857% {transform: scale(0.570000,0.570000)} 100% {transform: scale(0.570000,0.570000)} }#e0gsk083ze70i11 {animation: e0gsk083ze70i11_f_p 7000ms linear 1 normal forwards}@keyframes e0gsk083ze70i11_f_p { 0% {fill: rgb(38,255,107)} 74.285714% {fill: rgb(38,255,107)} 88.571429% {fill: rgb(255,255,255)} 100% {fill: rgb(255,255,255)} }#e0gsk083ze70i12_to {animation: e0gsk083ze70i12_to__to 7000ms linear 1 normal forwards}@keyframes e0gsk083ze70i12_to__to { 0% {transform: translate(-2.770000px,-16.460000px)} 44.285714% {transform: translate(-2.770000px,-16.460000px);animation-timing-function: cubic-bezier(0.420000,0,0.580000,1)} 50% {transform: translate(174.070154px,299.348498px)} 100% {transform: translate(174.070154px,299.348498px)} }#e0gsk083ze70i12_ts {animation: e0gsk083ze70i12_ts__ts 7000ms linear 1 normal forwards}@keyframes e0gsk083ze70i12_ts__ts { 0% {transform: scale(1,1)} 44.285714% {transform: scale(1,1);animation-timing-function: cubic-bezier(0.420000,0,0.580000,1)} 50% {transform: scale(0.570000,0.570000)} 100% {transform: scale(0.570000,0.570000)} }#e0gsk083ze70i12 {animation: e0gsk083ze70i12_f_p 7000ms linear 1 normal forwards}@keyframes e0gsk083ze70i12_f_p { 0% {fill: rgb(38,255,107)} 82.857143% {fill: rgb(38,255,107)} 97.142857% {fill: rgb(255,255,255)} 100% {fill: rgb(255,255,255)} }#e0gsk083ze70i13_to {animation: e0gsk083ze70i13_to__to 7000ms linear 1 normal forwards}@keyframes e0gsk083ze70i13_to__to { 0% {transform: translate(-2.770000px,-16.460000px)} 47.857143% {transform: translate(-2.770000px,-16.460000px)} 54.285714% {transform: translate(9.497409px,299.247802px)} 100% {transform: translate(9.497409px,299.247802px)} }#e0gsk083ze70i13_ts {animation: e0gsk083ze70i13_ts__ts 7000ms linear 1 normal forwards}@keyframes e0gsk083ze70i13_ts__ts { 0% {transform: scale(1,1)} 47.857143% {transform: scale(1,1)} 54.285714% {transform: scale(0.570000,0.570000)} 100% {transform: scale(0.570000,0.570000)} }#e0gsk083ze70i13 {animation: e0gsk083ze70i13_f_p 7000ms linear 1 normal forwards}@keyframes e0gsk083ze70i13_f_p { 0% {fill: rgb(38,255,107)} 82.857143% {fill: rgb(38,255,107)} 97.142857% {fill: rgb(255,255,255)} 100% {fill: rgb(255,255,255)} }#e0gsk083ze70i14_to {animation: e0gsk083ze70i14_to__to 7000ms linear 1 normal forwards}@keyframes e0gsk083ze70i14_to__to { 0% {transform: translate(-2.770000px,-16.460000px)} 54.285714% {transform: translate(-2.770000px,-16.460000px);animation-timing-function: cubic-bezier(0.420000,0,0.580000,1)} 70% {transform: translate(-209.220000px,-16.460000px)} 100% {transform: translate(-209.220000px,-16.460000px)} }#e0gsk083ze70i16 {animation: e0gsk083ze70i16_c_o 7000ms linear 1 normal forwards}@keyframes e0gsk083ze70i16_c_o { 0% {opacity: 0} 54.285714% {opacity: 0;animation-timing-function: cubic-bezier(0.420000,0,0.580000,1)} 70% {opacity: 1} 100% {opacity: 1} }#e0gsk083ze70i17 {animation: e0gsk083ze70i17_f_p 7000ms linear 1 normal forwards}@keyframes e0gsk083ze70i17_f_p { 0% {fill: rgb(255,255,255)} 58.571429% {fill: rgb(255,255,255)} 72.857143% {fill: rgb(38,255,107)} 100% {fill: rgb(38,255,107)} }#e0gsk083ze70i18 {animation: e0gsk083ze70i18_f_p 7000ms linear 1 normal forwards}@keyframes e0gsk083ze70i18_f_p { 0% {fill: rgb(255,255,255)} 58.571429% {fill: rgb(255,255,255)} 72.857143% {fill: rgb(38,255,107)} 100% {fill: rgb(38,255,107)} }#e0gsk083ze70i19 {animation: e0gsk083ze70i19_f_p 7000ms linear 1 normal forwards}@keyframes e0gsk083ze70i19_f_p { 0% {fill: rgb(255,255,255)} 58.571429% {fill: rgb(255,255,255)} 72.857143% {fill: rgb(38,255,107)} 100% {fill: rgb(38,255,107)} }#e0gsk083ze70i20 {animation: e0gsk083ze70i20_f_p 7000ms linear 1 normal forwards}@keyframes e0gsk083ze70i20_f_p { 0% {fill: rgb(255,255,255)} 58.571429% {fill: rgb(255,255,255)} 72.857143% {fill: rgb(38,255,107)} 100% {fill: rgb(38,255,107)} }#e0gsk083ze70i21 {animation: e0gsk083ze70i21_f_p 7000ms linear 1 normal forwards}@keyframes e0gsk083ze70i21_f_p { 0% {fill: rgb(255,255,255)} 58.571429% {fill: rgb(255,255,255)} 72.857143% {fill: rgb(38,255,107)} 100% {fill: rgb(38,255,107)} }#e0gsk083ze70i22 {animation: e0gsk083ze70i22_f_p 7000ms linear 1 normal forwards}@keyframes e0gsk083ze70i22_f_p { 0% {fill: rgb(255,255,255)} 58.571429% {fill: rgb(255,255,255)} 72.857143% {fill: rgb(38,255,107)} 100% {fill: rgb(38,255,107)} }#e0gsk083ze70i23 {animation: e0gsk083ze70i23_f_p 7000ms linear 1 normal forwards}@keyframes e0gsk083ze70i23_f_p { 0% {fill: rgb(255,255,255)} 58.571429% {fill: rgb(255,255,255)} 72.857143% {fill: rgb(38,255,107)} 100% {fill: rgb(38,255,107)} }#e0gsk083ze70i24 {animation: e0gsk083ze70i24_c_o 7000ms linear 1 normal forwards}@keyframes e0gsk083ze70i24_c_o { 0% {opacity: 0} 82.857143% {opacity: 0;animation-timing-function: cubic-bezier(0.420000,0,0.580000,1)} 97.142857% {opacity: 1} 100% {opacity: 1} }#e0gsk083ze70i33 {animation: e0gsk083ze70i33_c_o 7000ms linear 1 normal forwards}@keyframes e0gsk083ze70i33_c_o { 0% {opacity: 0} 74.285714% {opacity: 0;animation-timing-function: cubic-bezier(0.420000,0,0.580000,1)} 88.571429% {opacity: 1} 100% {opacity: 1} }#e0gsk083ze70i45 {animation: e0gsk083ze70i45_c_o 7000ms linear 1 normal forwards}@keyframes e0gsk083ze70i45_c_o { 0% {opacity: 0} 65.714286% {opacity: 0;animation-timing-function: cubic-bezier(0.420000,0,0.580000,1)} 80% {opacity: 1} 100% {opacity: 1} }]]></style><g id="e0gsk083ze70i2" opacity="0"><path id="e0gsk083ze70i3" d="M2.770000,112.160000L2.770000,17.410000L23.770000,17.410000Q38.630000,17.410000,44.770000,23.490000Q50.910000,29.570000,50.870000,44.490000L50.870000,81.710000Q50.870000,97.290000,44.660000,104.710000Q38.450000,112.130000,23.660000,112.140000ZM16.300000,102L23.760000,102C25.681287,102.034748,27.599412,101.829834,29.470000,101.390000C30.949455,101.051982,32.293837,100.278788,33.330000,99.170000C34.214299,98.233003,34.995443,97.203772,35.660000,96.100000C36.347145,94.685173,36.751377,93.149770,36.850000,91.580000C37.080000,89.580000,37.210000,87.860000,37.240000,86.580000C37.270000,85.300000,37.300000,83.210000,37.300000,80.420000L37.300000,47.860000C37.300000,46.140000,37.300000,44.760000,37.300000,43.740000C37.300000,42.720000,37.230000,41.510000,37.140000,40.120000C37.086360,39.008490,36.952680,37.902291,36.740000,36.810000C36.570000,36,36.320000,35.100000,36,34.090000C35.765013,33.234762,35.360312,32.435563,34.810000,31.740000C34.253444,31.113226,33.648227,30.531415,33,30C32.311184,29.379609,31.500611,28.909613,30.620000,28.620000C29.590595,28.292686,28.537469,28.045285,27.470000,27.880000C26.146311,27.678799,24.808868,27.581835,23.470000,27.590000L16.300000,27.590000Z" transform="matrix(1 0 0 1 -2.77000000000000 -16.46000000000000)" fill="rgb(38,255,107)" stroke="none" stroke-width="1"/><path id="e0gsk083ze70i4" d="M55.060000,112.160000L75.370000,17.410000L88.900000,17.410000L109.210000,112.160000L95.670000,112.160000L90.590000,88.470000L73.670000,88.470000L68.600000,112.160000ZM75.370000,78.320000L88.900000,78.320000L82.130000,37.710000Z" transform="matrix(1 0 0 1 -2.77000000000000 -16.46000000000000)" fill="rgb(38,255,107)" stroke="none" stroke-width="1"/><path id="e0gsk083ze70i5" d="M116.820000,112.160000L116.820000,17.410000L133.740000,17.410000Q148.860000,17.410000,156.530000,23.280000Q164.200000,29.150000,164.200000,42.790000Q164.200000,51.250000,161.200000,56.960000C159.373469,60.608681,156.210968,63.413028,152.370000,64.790000L167.600000,112.160000L154.150000,112.160000L140.510000,68.160000L130.360000,68.160000L130.360000,112.160000ZM130.360000,58L133.740000,58Q142.200000,58,146.430000,54.430000Q150.660000,50.860000,150.660000,42.770000Q150.660000,34.680000,146.430000,31.110000Q142.200000,27.540000,133.740000,27.540000L130.360000,27.540000Z" transform="matrix(1 0 0 1 -2.77000000000000 -16.46000000000000)" fill="rgb(38,255,107)" stroke="none" stroke-width="1"/><g id="e0gsk083ze70i6_to" transform="translate(-2.770000,-16.460000)"><g id="e0gsk083ze70i6_ts" transform="scale(1,1)"><path id="e0gsk083ze70i6" d="M175.410000,112.160000L175.410000,17.410000L212.630000,17.410000L212.630000,27.560000L188.940000,27.560000L188.940000,58L205.860000,58L205.860000,68.170000L188.940000,68.170000L188.940000,102L212.630000,102L212.630000,112.150000Z" transform="translate(0,0)" fill="rgb(38,255,107)" stroke="none" stroke-width="1"/></g></g><g id="e0gsk083ze70i7_to" transform="translate(-2.770000,-16.460000)"><g id="e0gsk083ze70i7_ts" transform="scale(1,1)"><path id="e0gsk083ze70i7" d="M253,112.160000L253,29.460000L236.110000,29.460000L236.110000,17.460000L283.480000,17.460000L283.480000,29.460000L266.560000,29.460000L266.560000,112.160000Z" transform="translate(0,0)" fill="rgb(38,255,107)" stroke="none" stroke-width="1"/></g></g><g id="e0gsk083ze70i8_to" transform="translate(-2.770000,-16.460000)"><g id="e0gsk083ze70i8_ts" transform="scale(1,1)"><path id="e0gsk083ze70i8" d="M313.890000,113.110000C309.710014,113.231374,305.548085,112.513917,301.650000,111C298.406717,109.677507,295.595253,107.478887,293.530000,104.650000C291.443160,101.696303,289.952026,98.364180,289.140000,94.840000C288.169605,90.549202,287.709748,86.158748,287.770000,81.760000L287.770000,47.340000C287.707396,42.967574,288.167321,38.603323,289.140000,34.340000C289.954239,30.865852,291.446071,27.586538,293.530000,24.690000C295.600680,21.911099,298.415954,19.775374,301.650000,18.530000C305.559902,17.063859,309.715582,16.364456,313.890000,16.470000Q327.740000,16.470000,333.890000,24.400000Q340.040000,32.330000,340.020000,47.400000L340.020000,81.710000C340.078859,86.083915,339.608783,90.448908,338.620000,94.710000C337.783204,98.237257,336.283222,101.573190,334.200000,104.540000C332.139682,107.381452,329.332569,109.596683,326.090000,110.940000C322.212030,112.481289,318.061598,113.219522,313.890000,113.110000ZM304,97.730000Q306.720000,102,313.860000,102.010000Q321,102.020000,323.720000,97.730000Q326.440000,93.440000,326.440000,85.090000L326.440000,44Q326.440000,35.750000,323.750000,31.680000Q321.060000,27.610000,313.860000,27.610000Q306.660000,27.610000,303.970000,31.680000Q301.280000,35.750000,301.300000,44L301.300000,85.090000Q301.300000,93.450000,304,97.730000Z" transform="translate(0,0)" fill="rgb(38,255,107)" stroke="none" stroke-width="1"/></g></g><g id="e0gsk083ze70i9_to" transform="translate(-2.770000,-16.460000)"><g id="e0gsk083ze70i9_ts" transform="scale(1,1)"><path id="e0gsk083ze70i9" d="M398.170000,113.110000C394.590585,113.178886,391.027737,112.606528,387.650000,111.420000C384.846501,110.433645,382.298062,108.834893,380.190000,106.740000C378.147241,104.585251,376.541015,102.055360,375.460000,99.290000C374.222589,96.222246,373.362942,93.015360,372.900000,89.740000C372.375582,85.939663,372.128263,82.106218,372.160000,78.270000L372.160000,51.270000C372.128273,47.430461,372.375590,43.593691,372.900000,39.790000C373.364219,36.518139,374.223838,33.314715,375.460000,30.250000C376.538296,27.489207,378.144989,24.965374,380.190000,22.820000C382.304961,20.740905,384.851990,19.153279,387.650000,18.170000C394.791103,15.829649,402.506364,15.921079,409.590000,18.430000C412.634189,19.616303,415.296623,21.611400,417.290000,24.200000C419.262938,26.841654,420.730903,29.825047,421.620000,33C422.660934,36.830432,423.238397,40.771949,423.340000,44.740000C423.340000,45.410000,423.390000,46.450000,423.390000,47.850000L409.860000,47.850000L409.860000,44.850000C409.860000,42.980000,409.750000,41.390000,409.650000,40.070000C409.536087,38.692698,409.339061,37.323537,409.060000,35.970000C408.844260,34.736144,408.425233,33.546648,407.820000,32.450000C407.256244,31.495672,406.562987,30.624052,405.760000,29.860000C404.865827,29.034261,403.785047,28.437259,402.610000,28.120000C401.163724,27.725341,399.668977,27.536815,398.170000,27.560000C396.239357,27.509574,394.320115,27.870924,392.540000,28.620000C391.113846,29.215026,389.854174,30.148625,388.870000,31.340000C387.896533,32.672848,387.215043,34.195978,386.870000,35.810000C386.402753,37.603084,386.091591,39.433248,385.940000,41.280000C385.800000,43.060000,385.730000,45.280000,385.730000,47.860000L385.730000,81.710000C385.721635,83.756951,385.818429,85.802981,386.020000,87.840000C386.224638,89.695524,386.606378,91.527207,387.160000,93.310000C387.636241,94.947353,388.379572,96.494833,389.360000,97.890000C390.293972,99.167930,391.526487,100.197887,392.950000,100.890000C394.588226,101.681442,396.391103,102.072179,398.210000,102.030000C400.006038,102.077775,401.785872,101.679202,403.390000,100.870000C404.751829,100.159429,405.921717,99.130202,406.800000,97.870000C407.734910,96.467801,408.412186,94.910067,408.800000,93.270000C409.260761,91.482301,409.571836,89.659334,409.730000,87.820000C409.870000,86.060000,409.940000,84.010000,409.940000,81.690000L409.940000,78.320000L423.470000,78.320000L423.470000,81.710000C423.528536,86.044918,423.095776,90.372513,422.180000,94.610000C421.398229,98.108082,419.981454,101.433098,418,104.420000C416.055500,107.270842,413.344556,109.513784,410.180000,110.890000C406.379652,112.474177,402.285535,113.230958,398.170000,113.110000Z" transform="translate(0,0)" fill="rgb(38,255,107)" stroke="none" stroke-width="1"/></g></g><g id="e0gsk083ze70i10_to" transform="translate(-2.770000,-16.460000)"><g id="e0gsk083ze70i10_ts" transform="scale(1,1)"><path id="e0gsk083ze70i10" d="M432.380000,112.160000L432.380000,17.410000L449.300000,17.410000Q464.420000,17.410000,472.090000,23.280000Q479.760000,29.150000,479.760000,42.790000Q479.760000,51.250000,476.760000,56.960000C474.930976,60.606766,471.769365,63.410323,467.930000,64.790000L483.150000,112.160000L469.710000,112.160000L456.070000,68.160000L445.920000,68.160000L445.920000,112.160000ZM445.920000,58L449.300000,58Q457.760000,58,461.990000,54.430000Q466.220000,50.860000,466.220000,42.770000Q466.220000,34.680000,461.990000,31.110000Q457.760000,27.540000,449.300000,27.560000L445.920000,27.560000Z" transform="translate(0,0)" fill="rgb(38,255,107)" stroke="none" stroke-width="1"/></g></g><g id="e0gsk083ze70i11_to" transform="translate(-2.770000,-16.460000)"><g id="e0gsk083ze70i11_ts" transform="scale(1,1)"><path id="e0gsk083ze70i11" d="M491,112.160000L491,17.410000L528.220000,17.410000L528.220000,27.560000L504.510000,27.560000L504.510000,58L521.430000,58L521.430000,68.170000L504.510000,68.170000L504.510000,102L528.190000,102L528.190000,112.150000Z" transform="translate(0,0)" fill="rgb(38,255,107)" stroke="none" stroke-width="1"/></g></g><g id="e0gsk083ze70i12_to" transform="translate(-2.770000,-16.460000)"><g id="e0gsk083ze70i12_ts" transform="scale(1,1)"><path id="e0gsk083ze70i12" d="M530.570000,112.160000L550.880000,17.410000L564.410000,17.410000L584.720000,112.160000L571.180000,112.160000L566.100000,88.470000L549.180000,88.470000L544.110000,112.160000ZM550.880000,78.320000L564.410000,78.320000L557.640000,37.710000Z" transform="translate(0,0)" fill="rgb(38,255,107)" stroke="none" stroke-width="1"/></g></g><g id="e0gsk083ze70i13_to" transform="translate(-2.770000,-16.460000)"><g id="e0gsk083ze70i13_ts" transform="scale(1,1)"><path id="e0gsk083ze70i13" d="M599.790000,112.160000L599.790000,29.460000L582.870000,29.460000L582.870000,17.460000L630.240000,17.460000L630.240000,29.460000L613.320000,29.460000L613.320000,112.160000Z" transform="translate(0,0)" fill="rgb(38,255,107)" stroke="none" stroke-width="1"/></g></g><g id="e0gsk083ze70i14_to" transform="translate(-2.770000,-16.460000)"><path id="e0gsk083ze70i14" d="M637,112.160000L637,17.410000L674.220000,17.410000L674.220000,27.560000L650.500000,27.560000L650.500000,58L667.420000,58L667.420000,68.170000L650.500000,68.170000L650.500000,102L674.180000,102L674.180000,112.150000Z" transform="translate(0,0)" fill="rgb(38,255,107)" stroke="none" stroke-width="1"/></g></g><g id="e0gsk083ze70i15"><g id="e0gsk083ze70i16" transform="matrix(1 0 0 1 5.00000000000006 -1.34999083999999)" opacity="0"><path id="e0gsk083ze70i17" d="M163.770000,232.160000L163.770000,137.410000L180.690000,137.410000Q195.810000,137.410000,203.480000,143.280000Q211.150000,149.150000,211.150000,162.790000Q211.150000,171.250000,208.150000,176.960000C206.323469,180.608681,203.160968,183.413028,199.320000,184.790000L214.550000,232.160000L201.100000,232.160000L187.460000,188.160000L177.300000,188.160000L177.300000,232.160000ZM177.300000,178L180.690000,178Q189.150000,178,193.380000,174.430000Q197.610000,170.860000,197.610000,162.770000Q197.610000,154.690000,193.380000,151.110000Q189.150000,147.530000,180.690000,147.540000L177.300000,147.540000Z" transform="matrix(1 0 0 1 5.23000000000025 -135.11000000000001)" fill="rgb(255,255,255)" stroke="none" stroke-width="1"/><path id="e0gsk083ze70i18" d="M223,232.160000L223,137.410000L236.540000,137.410000L236.540000,232.160000Z" transform="matrix(1 0 0 1 5.23000000000025 -135.11000000000001)" fill="rgb(255,255,255)" stroke="none" stroke-width="1"/><path id="e0gsk083ze70i19" d="M251,232.160000L251,137.410000L261.160000,137.410000L284.850000,196L284.850000,137.410000L298.390000,137.410000L298.390000,232.160000L288.770000,232.160000L264.550000,169.160000L264.550000,232.160000Z" transform="matrix(1 0 0 1 5.23000000000025 -135.11000000000001)" fill="rgb(255,255,255)" stroke="none" stroke-width="1"/><path id="e0gsk083ze70i20" d="M344.660000,232.160000L327.740000,137.410000L341.270000,137.410000L348.040000,181.410000L351.480000,208.480000L354.810000,181.410000L361.580000,137.410000L375.110000,137.410000L381.880000,181.410000L385.210000,208.480000L388.650000,181.410000L395.420000,137.410000L409,137.410000L392,232.160000L378.500000,232.160000L371.730000,188.160000L368.340000,161.090000L365,188.170000L358.230000,232.170000Z" transform="matrix(1 0 0 1 5.23000000000025 -135.11000000000001)" fill="rgb(255,255,255)" stroke="none" stroke-width="1"/><path id="e0gsk083ze70i21" d="M460.290000,232.160000L460.290000,137.410000L473.830000,137.410000L473.830000,222L497.520000,222L497.520000,232.150000Z" transform="matrix(1 0 0 1 7.23000000000025 -135.11000000000001)" fill="rgb(255,255,255)" stroke="none" stroke-width="1"/><path id="e0gsk083ze70i22" d="M503.810000,232.160000L503.810000,137.410000L517.350000,137.410000L517.350000,222L541,222L541,232.150000Z" transform="matrix(1 0 0 1 7.23000000000025 -135.11000000000001)" fill="rgb(255,255,255)" stroke="none" stroke-width="1"/><path id="e0gsk083ze70i23" d="M572,233.110000Q559.210000,233.110000,552.460000,225.600000Q545.710000,218.090000,545,205.090000L558.530000,201.710000Q559.480000,222,572,222Q582.150000,222,582.150000,211.850000C582.169418,209.958613,581.892738,208.075837,581.330000,206.270000C580.788154,204.559822,579.937430,202.963445,578.820000,201.560000C577.879492,200.345152,576.853557,199.198912,575.750000,198.130000C574.840000,197.260000,573.590000,196.200000,572,194.930000L555.100000,181.400000C551.950019,178.911770,549.408935,175.737979,547.670000,172.120000C545.766732,168.118704,544.818501,163.730142,544.900000,159.300000Q544.900000,148.830000,551.400000,142.640000Q557.900000,136.450000,568.640000,136.460000Q580.160000,136.460000,586.960000,142.090000Q593.760000,147.720000,595.340000,158C595.440000,158.740000,595.570000,159.760000,595.710000,161.070000L582.170000,164.450000C582.170000,163.850000,582.050000,162.950000,581.910000,161.750000C581.545348,158.005918,580.161945,154.433281,577.910000,151.420000Q574.770000,147.540000,568.690000,147.530000Q563.820000,147.530000,561.180000,150.250000C559.321840,152.326552,558.368115,155.058162,558.530000,157.840000Q558.530000,165.840000,565.300000,171.220000L582.220000,184.760000Q595.770000,195.700000,595.760000,210.930000Q595.760000,221.340000,589.330000,227.210000Q582.900000,233.080000,572,233.110000Z" transform="matrix(1 0 0 1 7.23000000000025 -135.11000000000001)" fill="rgb(255,255,255)" stroke="none" stroke-width="1"/></g><g id="e0gsk083ze70i24" transform="matrix(1 0 0 1 48.87994385000002 0)" opacity="0"><path id="e0gsk083ze70i25" d="M250.830000,540.280000L250.830000,486.090000L264.380000,486.090000Q277.930000,486.090000,277.930000,501.570000Q277.930000,508.200000,274.440000,511.660000Q270.950000,515.120000,264.380000,515.120000L258.580000,515.120000L258.580000,540.280000ZM258.580000,509.280000L260.510000,509.280000C261.953035,509.305342,263.395445,509.201595,264.820000,508.970000C265.887379,508.804828,266.908895,508.420057,267.820000,507.840000C268.682615,507.277222,269.333465,506.443431,269.670000,505.470000C270.078381,504.197842,270.267740,502.865566,270.230000,501.530000C270.266233,499.952066,270.121963,498.375163,269.800000,496.830000C269.367302,494.545585,267.590488,492.752942,265.310000,492.300000C263.746130,491.966838,262.148443,491.819153,260.550000,491.860000L258.620000,491.860000Z" transform="matrix(1 0 0 1 -59.15994390229037 -177.00030199999998)" fill="rgb(255,255,255)" stroke="none" stroke-width="1"/><path id="e0gsk083ze70i26" d="M282.310000,540.280000L282.310000,486.090000L290.060000,486.090000L290.060000,509.320000L303.600000,509.320000L303.600000,486.090000L311.350000,486.090000L311.350000,540.280000L303.600000,540.280000L303.600000,515.120000L290.060000,515.120000L290.060000,540.280000Z" transform="matrix(1 0 0 1 -59.15994390229037 -177.00030199999998)" fill="rgb(255,255,255)" stroke="none" stroke-width="1"/><path id="e0gsk083ze70i27" d="M333.060000,540.830000C330.667435,540.886126,328.287698,540.464572,326.060000,539.590000C324.206825,538.833372,322.600387,537.576611,321.420000,535.960000C320.224195,534.272319,319.371398,532.366266,318.910000,530.350000C318.347782,527.893960,318.082550,525.379289,318.120000,522.860000L318.120000,503.210000C318.080615,500.707138,318.345898,498.208782,318.910000,495.770000C319.371545,493.781489,320.224837,491.904927,321.420000,490.250000C322.601447,488.660274,324.210742,487.439429,326.060000,486.730000C328.295745,485.890195,330.672496,485.489542,333.060000,485.550000Q340.980000,485.550000,344.490000,490.080000Q348,494.610000,348,503.210000L348,522.860000C348.032454,525.359796,347.763855,527.854410,347.200000,530.290000C346.721262,532.307018,345.862620,534.214356,344.670000,535.910000C343.494859,537.538782,341.887680,538.806513,340.030000,539.570000C337.816603,540.459884,335.444865,540.888635,333.060000,540.830000ZM327.420000,532.030000Q328.980000,534.470000,333.060000,534.480000Q337.140000,534.490000,338.700000,532C339.700000,530.360000,340.260000,528,340.260000,524.770000L340.260000,501.270000Q340.260000,496.560000,338.710000,494.270000C337.710000,492.710000,335.800000,491.940000,333.060000,491.940000C330.320000,491.940000,328.430000,492.710000,327.400000,494.270000C326.370000,495.830000,325.860000,498.170000,325.860000,501.270000L325.860000,524.800000C325.860000,528,326.380000,530.390000,327.420000,532Z" transform="matrix(1 0 0 1 -59.15994390229037 -177.00030199999998)" fill="rgb(255,255,255)" stroke="none" stroke-width="1"/><path id="e0gsk083ze70i28" d="M419.610000,540.830000C417.409977,540.874500,415.220440,540.515226,413.150000,539.770000C411.469385,539.154930,409.946132,538.174719,408.690000,536.900000C407.463989,535.562722,406.527723,533.986391,405.940000,532.270000C405.242187,530.353919,404.765760,528.364330,404.520000,526.340000C404.242780,523.963633,404.112532,521.572418,404.130000,519.180000L404.130000,505.450000Q404.130000,485.550000,419.910000,485.550000C422.148974,485.501491,424.376298,485.885161,426.470000,486.680000C428.244990,487.370313,429.807233,488.515268,431,490C432.182473,491.519591,433.064847,493.250402,433.600000,495.100000C434.213504,497.302906,434.549438,499.573819,434.600000,501.860000C434.600000,502.220000,434.600000,502.770000,434.600000,503.520000L426.900000,503.520000L426.900000,501.890000C426.889552,500.793963,426.822797,499.699187,426.700000,498.610000C426.590814,497.688022,426.386389,496.779840,426.090000,495.900000C425.850758,495.103859,425.445141,494.367613,424.900000,493.740000C424.347231,493.145520,423.662003,492.689843,422.900000,492.410000C421.941692,492.051089,420.922911,491.881292,419.900000,491.910000C418.516349,491.864672,417.142754,492.159995,415.900000,492.770000C414.836258,493.333574,413.970743,494.209558,413.420000,495.280000C412.834025,496.422153,412.422778,497.645780,412.200000,498.910000C411.943689,500.432970,411.823215,501.975704,411.840000,503.520000L411.840000,520.940000C411.840000,522.230000,411.840000,523.390000,411.960000,524.430000C412.040073,525.496531,412.176933,526.558037,412.370000,527.610000C412.524348,528.573294,412.806853,529.511614,413.210000,530.400000C413.577277,531.171318,414.044637,531.890850,414.600000,532.540000C415.171004,533.183157,415.887626,533.680334,416.690000,533.990000C417.613367,534.336746,418.593810,534.506373,419.580000,534.490000C420.742458,534.518844,421.893791,534.257646,422.930000,533.730000C423.835394,533.257950,424.611346,532.571266,425.190000,531.730000C425.795201,530.812374,426.238308,529.797625,426.500000,528.730000C426.821196,527.530891,427.038664,526.306379,427.150000,525.070000C427.260000,523.860000,427.320000,522.480000,427.320000,520.930000L427.320000,519L419.580000,519L419.580000,513.260000L435.060000,513.260000L435.060000,540.260000L429.260000,540.260000L427.320000,534.460000Q425.080000,540.830000,419.610000,540.830000Z" transform="matrix(1 0 0 1 -45.15994390229037 -177.00030199999998)" fill="rgb(255,255,255)" stroke="none" stroke-width="1"/><path id="e0gsk083ze70i29" d="M441.350000,540.280000L441.350000,486.090000L451,486.090000Q459.640000,486.090000,464,489.450000Q468.360000,492.810000,468.390000,500.610000C468.481337,503.410575,467.887473,506.191097,466.660000,508.710000C465.614984,510.796852,463.806535,512.401178,461.610000,513.190000L470.320000,540.280000L462.700000,540.280000L454.900000,515.120000L449.090000,515.120000L449.090000,540.280000ZM449.090000,509.280000L451,509.280000Q455.830000,509.280000,458.260000,507.280000Q460.690000,505.280000,460.680000,500.610000Q460.680000,495.970000,458.260000,493.940000Q455.840000,491.910000,451,491.940000L449.060000,491.940000Z" transform="matrix(1 0 0 1 -45.15994390229037 -177.00030199999998)" fill="rgb(255,255,255)" stroke="none" stroke-width="1"/><path id="e0gsk083ze70i30" d="M500,540.280000L500,486.090000L513.550000,486.090000Q527.090000,486.090000,527.090000,501.570000Q527.090000,508.200000,523.600000,511.660000Q520.110000,515.120000,513.600000,515.120000L507.790000,515.120000L507.790000,540.280000ZM507.740000,509.280000L509.680000,509.280000C511.125495,509.316994,512.571375,509.223280,514,509C515.066573,508.831771,516.087483,508.447228,517,507.870000C517.862581,507.309592,518.510872,506.474565,518.840000,505.500000C519.253222,504.228959,519.442701,502.895842,519.400000,501.560000C519.433846,499.982635,519.292988,498.406371,518.980000,496.860000C518.539715,494.579582,516.766423,492.790493,514.490000,492.330000C512.926060,491.997297,511.328427,491.849617,509.730000,491.890000L507.790000,491.890000Z" transform="matrix(1 0 0 1 -39.15994390229037 -177.00030199999998)" fill="rgb(255,255,255)" stroke="none" stroke-width="1"/><path id="e0gsk083ze70i31" d="M531.500000,540.280000L531.500000,486.090000L539.240000,486.090000L539.240000,509.320000L552.790000,509.320000L552.790000,486.090000L560.530000,486.090000L560.530000,540.280000L552.790000,540.280000L552.790000,515.120000L539.240000,515.120000L539.240000,540.280000Z" transform="matrix(1 0 0 1 -39.15994390229037 -177.00030199999998)" fill="rgb(255,255,255)" stroke="none" stroke-width="1"/><path id="e0gsk083ze70i32" d="M575.920000,540.280000L575.920000,522.860000L564.310000,486.090000L572.050000,486.090000L579.790000,513.190000L587.540000,486.090000L595.280000,486.090000L583.670000,522.860000L583.670000,540.280000Z" transform="matrix(1 0 0 1 -39.15994390229037 -177.00030199999998)" fill="rgb(255,255,255)" stroke="none" stroke-width="1"/></g><g id="e0gsk083ze70i33" opacity="0"><path id="e0gsk083ze70i34" d="M223.896685,458.470000L214.250000,404.460000L221.973328,404.460000L225.830009,429.541766L227.823125,444.967500L229.726552,429.541766L233.583233,404.460000L241.296595,404.460000L245.153276,429.541766L247.056703,444.967500L249.049819,429.541766L252.866638,404.460000L260.580000,404.460000L250.873521,458.470000L243.160159,458.470000L239.303478,433.398199L237.400052,417.952535L235.466728,433.388234L231.610047,458.460035Z" transform="matrix(1 0 0 1 -76.39881637879563 -180.38883672000003)" fill="rgb(255,255,255)" stroke="none" stroke-width="1"/><path id="e0gsk083ze70i35" d="M290.070000,458.469995L290.070000,404.459995L301.640043,404.459995C303.893561,404.434390,306.141000,404.698974,308.326950,405.247225C310.182396,405.717429,311.935582,406.524721,313.499088,407.628847C314.986060,408.709800,316.161662,410.163742,316.907318,411.844019C317.732513,413.776204,318.136779,415.861947,318.093222,417.962495C318.093222,421.340611,317.385666,423.941462,315.950622,425.665397C314.210130,427.614455,311.903228,428.969934,309.353405,429.541760C312.180698,430.341039,314.701803,431.973054,316.588419,434.225284Q319.000090,437.304452,319.000090,443.034295Q319.000090,450.179161,314.854407,454.324578Q310.708724,458.469995,303.573366,458.469995ZM297.783362,427.578666L301.640043,427.578666Q311.286728,427.578666,311.286728,417.932600C311.304927,416.977343,311.170356,416.025314,310.888105,415.112521C310.667794,414.410471,310.356195,413.740407,309.961306,413.119532C309.537306,412.532901,308.971605,412.063227,308.316984,411.754334C307.675223,411.418722,307.008942,411.132240,306.323867,410.897349C305.483854,410.649729,304.617447,410.502549,303.742781,410.458891C302.626636,410.369207,301.749664,410.309417,300.962383,410.289487C300.175102,410.269557,299.158613,410.289487,297.793328,410.289487ZM297.783362,452.650467L301.640043,452.650467Q306.622835,452.650467,308.964747,450.348565C310.509413,448.803998,311.286728,446.362587,311.286728,443.004401C311.286728,439.646214,310.509413,437.204803,308.964747,435.670201C307.420082,434.135600,304.978514,433.368299,301.640043,433.368299L297.783362,433.368299Z" transform="matrix(1 0 0 1 -74.39881637879563 -180.38883672000003)" fill="rgb(255,255,255)" stroke="none" stroke-width="1"/><path id="e0gsk083ze70i36" d="M337.300000,458.470000L337.300000,404.460000L349.258701,404.460000Q357.719482,404.460000,361.217402,407.927801Q364.715322,411.395601,364.695390,419.885734L364.695390,441.101101Q364.695390,449.979867,361.157608,454.224934Q357.619826,458.470000,349.198907,458.460035ZM345.023328,452.680367L349.268666,452.680367C350.365084,452.697638,351.459487,452.580507,352.527412,452.331594C353.368319,452.138409,354.132000,451.697585,354.719841,451.066046C355.225139,450.535862,355.669697,449.950955,356.045263,449.322181C356.440746,448.515571,356.671139,447.638102,356.722923,446.741260C356.862441,445.575362,356.932200,444.618727,356.952132,443.861391C356.972063,443.104055,356.952132,441.938157,356.952132,440.353731L356.952132,421.818934C356.952132,420.822439,356.952132,420.055138,356.952132,419.467207C356.952132,418.879275,356.952132,418.201659,356.862441,417.404463C356.830461,416.772060,356.753868,416.142704,356.633233,415.521089Q356.483749,414.833507,356.214678,413.966557C356.073418,413.483342,355.843635,413.030564,355.537019,412.631255C355.225090,412.279433,354.892304,411.946669,354.540460,411.634760C354.148534,411.280711,353.686873,411.012558,353.185141,410.847530C352.598856,410.662113,351.999142,410.522188,351.391336,410.429002C350.632980,410.312104,349.866554,410.255459,349.099251,410.259598L345.003396,410.259598Z" transform="matrix(1 0 0 1 -72.39881637879563 -180.38883672000003)" fill="rgb(255,255,255)" stroke="none" stroke-width="1"/><path id="e0gsk083ze70i37" d="M371.570000,458.470000L371.570000,404.460000L392.786728,404.460000L392.786728,410.249633L379.283362,410.249633L379.283362,427.608566L388.940013,427.608566L388.940013,433.398199L379.293328,433.398199L379.293328,452.680367L392.796694,452.680367L392.796694,458.470000Z" transform="matrix(1 0 0 1 -72.39881637879563 -180.38883672000003)" fill="rgb(255,255,255)" stroke="none" stroke-width="1"/><path id="e0gsk083ze70i38" d="M405.670043,458.470000L394.100000,404.460000L401.813362,404.460000L407.503710,433.358339L409.496827,446.850875L411.549738,433.358339L417.240086,404.460000L424.953448,404.460000L413.383405,458.470000Z" transform="matrix(1 0 0 1 -71.39881637879563 -180.38883672000003)" fill="rgb(255,255,255)" stroke="none" stroke-width="1"/><path id="e0gsk083ze70i39" d="M454.460000,458.470000L454.460000,404.460000L462.173362,404.460000L462.173362,452.680367L475.676728,452.680367L475.676728,458.470000Z" transform="matrix(1 0 0 1 -71.39881637879563 -180.38883672000003)" fill="rgb(255,255,255)" stroke="none" stroke-width="1"/><path id="e0gsk083ze70i40" d="M493.268570,459.006194C490.883769,459.068356,488.510993,458.648063,486.292661,457.770540C484.443017,457.016778,482.838836,455.764562,481.658664,454.153266C480.474957,452.468184,479.628907,450.569770,479.167268,448.562932C478.607494,446.118793,478.343176,443.616296,478.379987,441.109153L478.379987,421.518072C478.341330,419.024011,478.605692,416.534484,479.167268,414.104153C479.630188,412.125394,480.476620,410.256593,481.658664,408.603504C482.839917,407.019018,484.446935,405.802601,486.292661,405.095843C488.520711,404.258982,490.889283,403.859734,493.268570,403.919980Q501.161312,403.919980,504.659232,408.444064Q508.157152,412.968149,508.157152,421.518072L508.157152,441.109153C508.188984,443.596871,507.921311,446.079381,507.359906,448.503142C506.880786,450.515475,506.025317,452.419025,504.838613,454.113406C503.661807,455.730998,502.061869,456.992938,500.214582,457.760576C498.006639,458.638858,495.644137,459.062522,493.268570,459.006194ZM487.647980,450.237042Q489.202612,452.668489,493.268570,452.678454Q497.334528,452.688419,498.929022,450.237042C499.925580,448.612756,500.473687,446.251064,500.473687,443.032387L500.473687,419.584873Q500.473687,414.891384,498.938987,412.609411Q497.404287,410.327439,493.308432,410.287579Q489.212577,410.287579,487.667912,412.609411Q486.123246,414.931243,486.133212,419.584873L486.133212,443.032387Q486.093349,447.845456,487.647980,450.237042Z" transform="matrix(1 0 0 1 -71.39881637879563 -180.38883672000003)" fill="rgb(255,255,255)" stroke="none" stroke-width="1"/><path id="e0gsk083ze70i41" d="M515,458.470000L515,404.460000L528.503366,404.460000Q541.996767,404.460000,542.006733,419.895699Q542.006733,426.492493,538.518778,429.940363Q535.030824,433.388234,528.553194,433.398199L522.763190,433.398199L522.763190,458.470000ZM522.713362,427.578672L524.646685,427.578672C526.084309,427.601520,527.521257,427.501507,528.941852,427.279723C530.005717,427.109859,531.023323,426.723194,531.931527,426.143720C532.793270,425.585200,533.442509,424.753525,533.775160,423.782028C534.177643,422.516919,534.362965,421.192792,534.323267,419.865804C534.357489,418.293953,534.217111,416.723160,533.904713,415.182280C533.674925,414.075110,533.135863,413.055794,532.350082,412.242622C531.548314,411.446157,530.534962,410.896285,529.430166,410.658196C527.870804,410.331977,526.279289,410.184872,524.686548,410.219738L522.753224,410.219738Z" transform="matrix(1 0 0 1 -71.39881637879563 -180.38883672000003)" fill="rgb(255,255,255)" stroke="none" stroke-width="1"/><path id="e0gsk083ze70i42" d="M546.510000,458.470000L546.510000,404.460000L557.183140,404.460000L564.836709,445.854380L572.490277,404.499860L583.153452,404.499860L583.153452,458.509860L575.440090,458.509860L575.440090,415.849932L567.726728,458.470000L561.946690,458.470000L554.223362,415.849932L554.223362,458.470000Z" transform="matrix(1 0 0 1 -71.39881637879563 -180.38883672000003)" fill="rgb(255,255,255)" stroke="none" stroke-width="1"/><path id="e0gsk083ze70i43" d="M591,458.470000L591,404.460000L612.206763,404.460000L612.206763,410.249633L598.743259,410.249633L598.743259,427.608566L608.379978,427.608566L608.379978,433.398199L598.743259,433.398199L598.743259,452.680367L612.236659,452.680367L612.236659,458.470000Z" transform="matrix(1 0 0 1 -71.39881637879563 -180.38883672000003)" fill="rgb(255,255,255)" stroke="none" stroke-width="1"/><path id="e0gsk083ze70i44" d="M617.060000,458.470000L617.060000,404.460000L622.850004,404.460000L636.353371,437.882424L636.353371,404.460000L644.066733,404.460000L644.066733,458.470000L638.585661,458.470000L624.773362,422.546375L624.773362,458.470000Z" transform="matrix(1 0 0 1 -71.39881637879563 -180.38883672000003)" fill="rgb(255,255,255)" stroke="none" stroke-width="1"/></g><g id="e0gsk083ze70i45" transform="matrix(1 0 0 1 44.41999816999999 0)" opacity="0"><path id="e0gsk083ze70i46" d="M237.690000,370.250000C235.489977,370.294500,233.300440,369.935226,231.230000,369.190000C229.549385,368.574930,228.026132,367.594719,226.770000,366.320000C225.547438,364.980163,224.611621,363.404587,224.020000,361.690000C223.322187,359.773919,222.845760,357.784330,222.600000,355.760000C222.322780,353.383633,222.192532,350.992418,222.210000,348.600000L222.210000,334.870000Q222.210000,314.970000,237.990000,314.970000C240.228974,314.921491,242.456298,315.305161,244.550000,316.100000C246.316593,316.790552,247.871518,317.931749,249.060000,319.410000C250.246027,320.927329,251.128766,322.658855,251.660000,324.510000C252.278293,326.711886,252.614317,328.983408,252.660000,331.270000C252.660000,331.630000,252.660000,332.180000,252.660000,332.930000L245,332.930000L245,331.300000C244.989552,330.203963,244.922797,329.109187,244.800000,328.020000C244.689423,327.099165,244.488453,326.191453,244.200000,325.310000C243.957505,324.513132,243.548475,323.776878,243,323.150000C242.447231,322.555520,241.762003,322.099843,241,321.820000C240.041692,321.461089,239.022911,321.291292,238,321.320000C236.615905,321.269674,235.241105,321.565256,234,322.180000C232.936830,322.740996,232.073846,323.617956,231.530000,324.690000C230.936417,325.829825,230.521573,327.054122,230.300000,328.320000C230.043689,329.842970,229.923215,331.385704,229.940000,332.930000L229.940000,350.350000C229.940000,351.640000,229.940000,352.800000,230.060000,353.840000C230.180000,354.880000,230.280000,355.940000,230.470000,357.020000C230.624348,357.983294,230.906853,358.921614,231.310000,359.810000C231.677277,360.581318,232.144637,361.300850,232.700000,361.950000C233.271004,362.593157,233.987626,363.090334,234.790000,363.400000C235.713367,363.746746,236.693810,363.916373,237.680000,363.900000C238.845823,363.930515,240.000796,363.669271,241.040000,363.140000C241.935030,362.679109,242.706576,362.010436,243.290000,361.190000C243.895201,360.272374,244.338308,359.257625,244.600000,358.190000C244.921196,356.990891,245.138664,355.766379,245.250000,354.530000C245.370000,353.320000,245.420000,351.940000,245.420000,350.390000L245.420000,348.450000L237.680000,348.450000L237.680000,342.710000L253.160000,342.710000L253.160000,369.710000L247.360000,369.710000L245.420000,363.910000Q243.160000,370.250000,237.690000,370.250000Z" transform="matrix(1 0 0 1 -75.15999822409623 -177.00030199999998)" fill="rgb(255,255,255)" stroke="none" stroke-width="1"/><path id="e0gsk083ze70i47" d="M281.210000,369.700000L292.820000,315.510000L300.560000,315.510000L312.170000,369.700000L304.430000,369.700000L301.530000,356.160000L291.850000,356.160000L289,369.700000ZM292.820000,350.350000L300.560000,350.350000L296.690000,327.120000Z" transform="matrix(1 0 0 1 -65.15999822409623 -177.00030199999998)" fill="rgb(255,255,255)" stroke="none" stroke-width="1"/><path id="e0gsk083ze70i48" d="M316.530000,369.700000L316.530000,315.510000L330.080000,315.510000Q343.630000,315.510000,343.620000,330.990000Q343.620000,337.620000,340.130000,341.080000Q336.640000,344.540000,330.080000,344.540000L324.270000,344.540000L324.270000,369.700000ZM324.270000,338.700000L326.200000,338.700000C327.643045,338.725717,329.085489,338.621968,330.510000,338.390000C331.575365,338.217219,332.595388,337.833010,333.510000,337.260000C334.369926,336.696710,335.017421,335.862707,335.350000,334.890000C335.758381,333.617842,335.947740,332.285566,335.910000,330.950000C335.943846,329.372635,335.802988,327.796371,335.490000,326.250000C335.049715,323.969582,333.276423,322.180493,331,321.720000C329.432741,321.386883,327.831750,321.239202,326.230000,321.280000L324.300000,321.280000Z" transform="matrix(1 0 0 1 -65.15999822409623 -177.00030199999998)" fill="rgb(255,255,255)" stroke="none" stroke-width="1"/><path id="e0gsk083ze70i49" d="M348,369.700000L348,315.510000L355.740000,315.510000L355.740000,338.740000L369.300000,338.740000L369.300000,315.510000L377,315.510000L377,369.700000L369.300000,369.700000L369.300000,344.540000L355.750000,344.540000L355.750000,369.700000Z" transform="matrix(1 0 0 1 -65.15999822409623 -177.00030199999998)" fill="rgb(255,255,255)" stroke="none" stroke-width="1"/><path id="e0gsk083ze70i50" d="M385.140000,369.700000L385.140000,315.510000L392.890000,315.510000L392.890000,369.700000Z" transform="matrix(1 0 0 1 -65.15999822409623 -177.00030199999998)" fill="rgb(255,255,255)" stroke="none" stroke-width="1"/><path id="e0gsk083ze70i51" d="M426.330000,369.700000L426.330000,315.510000L438.330000,315.510000Q446.820000,315.510000,450.330000,318.990000Q453.840000,322.470000,453.820000,330.990000L453.820000,352.280000Q453.820000,361.210000,450.270000,365.450000Q446.720000,369.690000,438.270000,369.700000ZM434.070000,363.900000L438.340000,363.900000C439.436929,363.917929,440.531876,363.800373,441.600000,363.550000C442.446057,363.354551,443.215148,362.912585,443.810000,362.280000C444.317389,361.744606,444.763480,361.154290,445.140000,360.520000C445.533827,359.712975,445.764889,358.836299,445.820000,357.940000C445.950000,356.770000,446.030000,355.810000,446.050000,355.050000C446.070000,354.290000,446.050000,353.120000,446.050000,351.530000L446.050000,332.930000C446.050000,331.930000,446.050000,331.160000,446.050000,330.570000C446.050000,329.980000,446.050000,329.300000,445.960000,328.500000C445.931714,327.865569,445.858194,327.233965,445.740000,326.610000C445.640000,326.150000,445.490000,325.610000,445.310000,325.050000C445.176584,324.561828,444.945223,324.105911,444.630000,323.710000C444.322112,323.352158,443.987842,323.017888,443.630000,322.710000C443.236688,322.357081,442.773227,322.091272,442.270000,321.930000C441.681371,321.742668,441.079743,321.598946,440.470000,321.500000C439.712085,321.386315,438.946360,321.332814,438.180000,321.340000L434.060000,321.340000Z" transform="matrix(1 0 0 1 -39.15999822409623 -177.00030199999998)" fill="rgb(255,255,255)" stroke="none" stroke-width="1"/><path id="e0gsk083ze70i52" d="M460.590000,369.700000L460.590000,315.510000L481.880000,315.510000L481.880000,321.320000L468.340000,321.320000L468.340000,338.740000L478,338.740000L478,344.540000L468.330000,344.540000L468.330000,363.900000L481.870000,363.900000L481.870000,369.700000Z" transform="matrix(1 0 0 1 -39.15999822409623 -177.00030199999998)" fill="rgb(255,255,255)" stroke="none" stroke-width="1"/><path id="e0gsk083ze70i53" d="M500.750000,370.250000Q493.440000,370.250000,489.580000,365.950000Q485.720000,361.650000,485.270000,354.220000L493.010000,352.280000Q493.590000,363.910000,500.750000,363.900000C504.630000,363.900000,506.560000,361.960000,506.560000,358.090000C506.568351,357.008821,506.409819,355.932828,506.090000,354.900000C505.779018,353.924618,505.294591,353.013352,504.660000,352.210000C504.118760,351.504691,503.530771,350.836521,502.900000,350.210000C502.380000,349.720000,501.660000,349.110000,500.750000,348.380000L491.080000,340.640000C489.276957,339.217239,487.823221,337.400924,486.830000,335.330000C485.738111,333.043245,485.193735,330.533640,485.240000,328C485.066672,324.441541,486.419993,320.978206,488.960000,318.480000C491.649042,316.042250,495.194473,314.769347,498.820000,314.940000Q505.400000,314.940000,509.300000,318.160000C511.992143,320.485178,513.703628,323.743787,514.090000,327.280000C514.150000,327.700000,514.220000,328.280000,514.300000,329.030000L506.560000,331C506.560000,330.660000,506.490000,330.150000,506.410000,329.460000C506.192066,327.316518,505.393381,325.273130,504.100000,323.550000C502.787823,322.019784,500.831401,321.197197,498.820000,321.330000C497.231906,321.228082,495.673326,321.793520,494.520000,322.890000C493.463202,324.076467,492.920160,325.633666,493.010000,327.220000C492.997707,330.246026,494.436832,333.094527,496.880000,334.880000L506.560000,342.620000Q514.300000,348.870000,514.300000,357.620000Q514.300000,363.620000,510.630000,366.930000Q506.960000,370.240000,500.750000,370.250000Z" transform="matrix(1 0 0 1 -39.15999822409623 -177.00030199999998)" fill="rgb(255,255,255)" stroke="none" stroke-width="1"/><path id="e0gsk083ze70i54" d="M520.320000,369.700000L520.320000,315.510000L528.060000,315.510000L528.060000,369.700000Z" transform="matrix(1 0 0 1 -39.15999822409623 -177.00030199999998)" fill="rgb(255,255,255)" stroke="none" stroke-width="1"/><path id="e0gsk083ze70i55" d="M550.860000,370.250000C548.663229,370.294634,546.476946,369.935338,544.410000,369.190000C542.727886,368.577949,541.204005,367.597335,539.950000,366.320000C538.723989,364.982722,537.787723,363.406391,537.200000,361.690000C536.503542,359.772888,536.023889,357.783836,535.770000,355.760000C535.492780,353.383633,535.362532,350.992418,535.380000,348.600000L535.380000,334.870000Q535.380000,314.970000,551.170000,314.970000C553.408918,314.922242,555.636100,315.305888,557.730000,316.100000C559.492287,316.793293,561.043318,317.934163,562.230000,319.410000C563.416027,320.927329,564.298766,322.658855,564.830000,324.510000C565.448293,326.711886,565.784317,328.983408,565.830000,331.270000C565.830000,331.630000,565.830000,332.180000,565.830000,332.930000L558.090000,332.930000L558.090000,331.300000C558.116234,330.199185,558.086195,329.097749,558,328C557.880927,327.079743,557.676718,326.172521,557.390000,325.290000C557.150758,324.493859,556.745141,323.757613,556.200000,323.130000C555.643436,322.540003,554.959336,322.085077,554.200000,321.800000C553.241692,321.441089,552.222911,321.271292,551.200000,321.300000C549.815831,321.248826,548.440824,321.544452,547.200000,322.160000C546.131918,322.717718,545.264835,323.595289,544.720000,324.670000C544.134025,325.812153,543.722778,327.035780,543.500000,328.300000C543.234945,329.821991,543.111085,331.365217,543.130000,332.910000L543.130000,350.330000C543.130000,351.620000,543.130000,352.780000,543.250000,353.820000C543.370000,354.860000,543.470000,355.920000,543.660000,357C543.817421,357.963797,544.103299,358.902149,544.510000,359.790000C544.869341,360.565731,545.337378,361.286306,545.900000,361.930000C546.469449,362.584143,547.190457,363.088849,548,363.400000C548.919850,363.746900,549.897050,363.916553,550.880000,363.900000C552.045823,363.930515,553.200796,363.669271,554.240000,363.140000C555.138858,362.684788,555.911652,362.015032,556.490000,361.190000C557.102471,360.275117,557.549276,359.259651,557.810000,358.190000C558.126362,356.989822,558.343757,355.765718,558.460000,354.530000C558.570000,353.320000,558.630000,351.940000,558.630000,350.390000L558.630000,348.450000L550.880000,348.450000L550.880000,342.710000L566.370000,342.710000L566.370000,369.710000L560.560000,369.710000L558.630000,363.910000Q556.330000,370.250000,550.860000,370.250000Z" transform="matrix(1 0 0 1 -39.15999822409623 -177.00030199999998)" fill="rgb(255,255,255)" stroke="none" stroke-width="1"/><path id="e0gsk083ze70i56" d="M572.610000,369.700000L572.610000,315.510000L578.410000,315.510000L592,349L592,315.510000L599.740000,315.510000L599.740000,369.700000L594.240000,369.700000L580.390000,333.700000L580.390000,369.700000Z" transform="matrix(1 0 0 1 -39.15999822409623 -177.00030199999998)" fill="rgb(255,255,255)" stroke="none" stroke-width="1"/></g></g></svg>