<?xml version="1.0" encoding="utf-8"?>
<!-- Generator: Adobe Illustrator 23.0.3, SVG Export Plug-In . SVG Version: 6.00 Build 0)  -->
<svg version="1.1" id="Layer_1" xmlns="http://www.w3.org/2000/svg" xmlns:xlink="http://www.w3.org/1999/xlink" x="0px" y="0px"
	 viewBox="0 0 2500 2438" style="enable-background:new 0 0 2500 2438;" xml:space="preserve">
<style type="text/css">
	.st0{fill:#FFFFFF;}
</style>
<path class="st0" d="M1628.8,1110.3c0-24.5,0-83.6-10.2-197.8c0-16.3,4.1-20.4,16.3-26.5c124.4-51,420-140.7,750.4-140.7
	c16.3,0,24.5,4.1,24.5,20.4v293.6c0,16.3-6.1,20.4-24.5,20.4c-128.5-6.1-318.1,10.2-389.5,40.8v1286.6c0,16.3-6.1,24.5-24.5,24.5
	h-320.1c-16.3,0-24.5-6.1-24.5-24.5V1110.3L1628.8,1110.3L1628.8,1110.3L1628.8,1110.3z"/>
<path class="st0" d="M119.9,2431.6c-24.5,0-30.6-10.2-30.6-30.6v-2192c0-16.3,6.1-26.5,24.5-26.5H436c16.3,0,20.4,6.1,20.4,24.5
	v1888.1h840.1c16.3,0,22.4,6.1,18.3,24.5l-51,289.5c-4.1,16.3-14.3,24.5-30.6,24.5H119.9V2431.6z"/>
</svg>
