<?xml version="1.0" encoding="utf-8"?>
<!-- Generator: Adobe Illustrator 23.0.3, SVG Export Plug-In . SVG Version: 6.00 Build 0)  -->
<svg version="1.1" id="Layer_1" xmlns="http://www.w3.org/2000/svg" xmlns:xlink="http://www.w3.org/1999/xlink" x="0px" y="0px"
	 viewBox="0 0 2500 2438" style="enable-background:new 0 0 2500 2438;" xml:space="preserve">
<style type="text/css">
	.st0{fill:#FFFFFF;}
</style>
<path class="st0" d="M1656.71,1009.78c0-26.27,0-89.75-10.94-212.34c0-17.51,4.38-21.89,17.51-28.45
	c133.53-54.73,450.94-151.04,805.56-151.04c17.51,0,26.27,4.38,26.27,21.89v315.22c0,17.51-6.57,21.89-26.27,21.89
	c-137.91-6.57-341.49,10.94-418.1,43.77V2402c0,17.51-6.57,26.26-26.27,26.26h-343.68c-17.51,0-26.27-6.57-26.27-26.26V1009.77
	L1656.71,1009.78L1656.71,1009.78L1656.71,1009.78z"/>
<path class="st0" d="M36.84,2428.26c-26.27,0-32.84-10.94-32.84-32.83V42.23c0-17.51,6.57-28.46,26.27-28.46h345.85
	c17.51,0,21.89,6.57,21.89,26.27v2027.04h901.87c17.51,0,24.08,6.57,19.7,26.27l-54.72,310.84c-4.38,17.5-15.32,26.26-32.84,26.26
	H36.84V2428.26z"/>
</svg>
