<svg id="Layer_1" data-name="Layer 1" xmlns="http://www.w3.org/2000/svg" viewBox="0 0 309.17 341.31"><defs><style>.cls-1{fill:#fff;}.cls-2{fill:#077a5f;}</style></defs><title>mds_logo</title><path class="cls-1" d="M310.28,111.39a48.3,48.3,0,0,0-18.4-37.75,103.16,103.16,0,0,0-13.73-8.91l-2.06-1.17C238.65,41.88,209.71,25.17,182.28,9.4c-16.93-9.73-35.44-9.8-52.4-.25-8,4.52-16.09,9.19-23.88,13.73L96,28.66,75.52,40.5c-15.35,8.87-31.22,18-46.86,27C10.91,77.65,1.47,93.17,1.37,112.37c-.17,36.33-.18,75.67,0,120.28.07,18.7,9,34.2,25.12,43.64,16.9,9.87,34.77,20.25,54.48,31.61V269.67c-13.29-7.68-25.79-15-37.78-22-6-3.51-8.7-8.2-8.72-15.19-.16-44.5-.16-83.75,0-120,0-5.07,1.3-11,10.61-16.29,15.7-9,31.61-18.18,47-27.08l20.47-11.83q5-2.9,10-5.81C130.28,47,138.24,42.42,146.11,38a17.94,17.94,0,0,1,19.65.12c27.39,15.75,56.29,32.43,93.71,54.09l2.19,1.27a76.47,76.47,0,0,1,9.47,6,14.92,14.92,0,0,1,6,12.27c.16,14.24.13,28.76.09,42.82q0,8.94,0,17.92v17.39q0,20.51,0,41c0,8.33-2.92,13.45-10.16,17.63l-21,12.12q-7.67,4.45-15.47,8.94v38.23c10.77-6.2,21.48-12.41,32-18.52l20.95-12.11c17.51-10.13,26.75-26.16,26.7-46.38-.05-13.64,0-27.27,0-40.92l.08-17.41v-9.25c0-2.86,0-5.73,0-8.6C310.41,140.49,310.45,125.84,310.28,111.39Z" transform="translate(-1.24 -2.04)"/><path class="cls-1" d="M63.35,213.29H81V307.9c10.47,6,21.47,12.35,33.1,19V213.29H131.7l-34.16-37Z" transform="translate(-1.24 -2.04)"/><path class="cls-2" d="M248.34,134.22l-34.19-37-34.19,37h17.62V326.9q16.59-9.52,33.1-19.06V134.22Z" transform="translate(-1.24 -2.04)"/><path class="cls-2" d="M172.39,173.58H190l-34.19-37-34.19,37h17.62V334.35h0v6a47.82,47.82,0,0,0,33.1,0V173.58Z" transform="translate(-1.24 -2.04)"/></svg>