<?xml version="1.0" encoding="utf-8"?>
<!-- Generator: Adobe Illustrator 23.0.3, SVG Export Plug-In . SVG Version: 6.00 Build 0)  -->
<svg version="1.1" id="Layer_1" xmlns="http://www.w3.org/2000/svg" xmlns:xlink="http://www.w3.org/1999/xlink" x="0px" y="0px"
	 viewBox="0 0 384.9 383.4" style="enable-background:new 0 0 384.9 383.4;" xml:space="preserve">
<style type="text/css">
	.st0{fill:#507EC0;}
	.st1{fill:#EADDC5;}
</style>
<path class="st0" d="M3.7,3.1v377.4h377.4V3.1H3.7z M16.7,367.6V16.1h351.5v351.5H16.7z"/>
<g>
	<path class="st1" d="M311.7,68.7c-10.7-12.5-25.7-20.7-42.4-23c-3.8-0.5-7.5-0.8-11.1-0.8c-19.8,0-36.5,7.9-49.9,23.4
		C197.9,80.6,187,93,176.5,105l-0.3,0.4c-7.2,8.3-14.7,16.8-22.1,25.4c-10.3,11.9-14.9,24.2-14.2,37.6c0.6,11.3,3.8,20.7,9.7,28.5
		c3.3,4.4,7,8.6,10.6,12.6l0.2,0.2c1.1,1.3,2.4,2.8,3.7,4.3l0.5,0.5l23.5-26.4l-2.3-2.7c-1.9-2.2-3.9-4.4-5.8-6.6
		c-6.7-7.7-6.8-16.7-0.3-24.3c2.9-3.4,5.8-6.7,8.7-10.1l0.1-0.1c15.5-17.9,31.5-36.5,47.6-54.4c6.4-7.1,14-10.6,22.7-10.6
		c3.6,0,7.5,0.6,11.5,1.9c13,4.1,20.8,13.3,23,27.3c0.4,2.3,0.4,4.9,0.4,7.3c0,60,0,119.9,0,179.9v43h34.6V114.1
		C328.1,97.2,322.3,81.1,311.7,68.7z"/>
	<path class="st1" d="M158.8,100.7c1.7,2,3.4,4.1,5.2,6.1l0.6,0.7l23.3-26.2l-2.2-2.5c-2.6-3-5.4-6.1-7.9-9.2
		c-11.1-13.3-25.6-21.4-42.8-24.1c-3.3-0.5-6.6-0.8-9.9-0.8c-31.7,0-60.4,23.2-66.6,54c-1,5.1-1.6,10.7-1.6,16.4
		c-0.1,56.7-0.1,114-0.1,169.5l0,54.1h34.9l0-10.2l0-0.2c0-0.1,0-0.1,0-0.2c0-24.2,0-48.4,0-72.6v-0.7c0-46.5,0-94.5,0.1-141.8
		c0-14.4,7-25,20.2-30.7c4.8-2.1,9.6-3.1,14.1-3.1c7.8,0,15.1,3.1,21.8,9.3C151.7,92.2,155.1,96.3,158.8,100.7z"/>
	<path class="st1" d="M231,237.5c-2.4-2.9-4.9-5.7-7.3-8.5l0-0.1c-0.8-0.9-1.5-1.7-2.3-2.6l-1.1-1.2l-23.5,26.4l1.7,2
		c1.1,1.2,2.2,2.5,3.3,3.7l0.1,0.1c1.5,1.7,3.1,3.5,4.6,5.2c0.8,0.9,1.5,2,2.2,3.6c0.5,0.9,0.8,1.9,1.1,3c0.6,2.4,0.7,4.7,0.3,6.8
		c-0.3,1.5-0.6,2.8-1,3.8c-2.8,6.9-9.3,11.3-16.5,11.3c-0.5,0-1,0-1.5-0.1c-7.5-0.6-14.1-6.2-15.6-13.3c-1.4-6.4,0-11.7,4.3-16.6
		l18.2-20.7c4.6-5.2,9.2-10.5,13.8-15.8c8.4-9.6,14.8-16.9,20.8-23.8c5-5.7,8.6-12.4,10.7-19.8c4.8-17.1,0.8-35.3-10.7-48.7
		l-0.6-0.7c-3.4-4-7.3-8.5-11.2-12.9l-0.5-0.5L197,144.3l6.7,7.7l3.6,4.8c4.3,6.6,3.8,15.4-1.3,21.2c-6.3,7.1-12.5,14.3-18.8,21.4
		c-3.9,4.5-7.8,8.9-11.8,13.4l-3.7,4.3c-5.9,6.7-11.8,13.5-17.8,20.2c-10,11.3-15,25.4-14.1,39.6c0.9,13.7,7.2,26.4,17.9,35.8
		c10.2,8.9,21.6,13.5,33.9,13.5h0c6,0,12.3-1.1,18.5-3.4c17.2-6.2,28.3-18.1,33.1-35.3c0.5-1.8,0.9-3.6,1.2-5.4
		c2.8-15-1-29.1-11.3-42C232.5,239.3,231.8,238.4,231,237.5z"/>
</g>
</svg>
