<?xml version="1.0" encoding="utf-8"?>
<!-- Generator: Adobe Illustrator 23.0.3, SVG Export Plug-In . SVG Version: 6.00 Build 0)  -->
<svg version="1.1" id="Layer_1" xmlns="http://www.w3.org/2000/svg" xmlns:xlink="http://www.w3.org/1999/xlink" x="0px" y="0px"
	 viewBox="0 0 3521 3446.8" style="enable-background:new 0 0 3521 3446.8;" xml:space="preserve">
<title>ps-black</title>
<path d="M2810.4,1401.9c-213.9,0-287,118.4-287,216c0,106.5,48.7,180.5,335.7,343.3c425.1,224.9,557.7,441,557.7,757.6
	c0,473.5-330.3,728-777,728c-235.6,0-438.6-53.3-555-127.3c-19-8.9-21.6-23.7-21.6-47.4v-435.1c0-29.6,13.5-38.5,32.5-23.7
	c170.6,121.3,365.5,174.6,544.2,174.6c213.9,0,303.2-97.6,303.2-230.8c0-106.5-62.3-201.3-335.7-355.1
	c-384.5-201.3-544.2-405.4-544.2-745.8c0-381.8,273.5-698.4,747.3-698.4c232.8,0,395.3,38.5,484.6,82.9
	c21.6,14.8,27.1,38.5,27.1,59.2v405.4c0,23.7-13.5,38.5-40.6,29.6C3162.3,1452.2,2986.3,1401.9,2810.4,1401.9L2810.4,1401.9z"/>
<path d="M758.1,132.3c-268,0-525.2,6-698.5,15c-21.6,0-59.5,15-59.5,36.1v3227.4c0,27.1,10.8,36.1,32.5,36.1h414.2
	c24.4,0,32.5-12,32.5-36.1V2256.8c73.1,0,108.3,6,211.2,6c611.9,0,1110.1-327.6,1110.1-1090.8C1800.5,589,1508,132.3,758.1,132.3z
	 M701.2,1785.1c-108.3,0-157,0-219.3-6l0,0v-1160c48.7-3.1,151.6-9,259.9-9c360.1,0,574,192.3,574,574
	C1315.8,1661.8,1018,1785.1,701.2,1785.1z"/>
</svg>
