<?xml version="1.0" encoding="utf-8"?>
<!-- Generator: Adobe Illustrator 23.0.3, SVG Export Plug-In . SVG Version: 6.00 Build 0)  -->
<svg version="1.1" id="Layer_1" xmlns="http://www.w3.org/2000/svg" xmlns:xlink="http://www.w3.org/1999/xlink" x="0px" y="0px"
	 viewBox="0 0 2500 2438" style="enable-background:new 0 0 2500 2438;" xml:space="preserve">
<style type="text/css">
	.st0{fill:#FFFFFF;}
</style>
<path class="st0" d="M2058.7,1071.61c-155.63,0-208.81,78.81-208.81,143.81c0,70.92,35.46,120.17,244.29,228.52
	c309.29,149.73,405.82,293.54,405.82,504.34c0,315.21-240.34,484.63-565.4,484.63c-171.4,0-319.15-35.46-403.85-84.71
	c-13.79-5.9-15.75-15.75-15.75-31.53v-289.61c0-19.71,9.85-25.61,23.64-15.75c124.1,80.77,265.95,116.24,395.97,116.24
	c155.63,0,220.65-65,220.65-153.66c0-70.92-45.31-133.96-244.29-236.4c-279.75-133.96-395.97-269.9-395.97-496.45
	c0-254.14,198.98-464.92,543.73-464.92c169.42,0,287.62,25.61,352.64,55.17c15.75,9.85,19.71,25.61,19.71,39.39v269.9
	c0,15.75-9.85,25.61-29.56,19.71C2314.81,1105.11,2186.75,1071.61,2058.7,1071.61L2058.7,1071.61z"/>
<path class="st0" d="M565.4,226.46c-195.02,0-382.18,3.95-508.27,9.85c-15.73,0-43.33,9.85-43.33,23.64v2115.84
	c0,17.74,7.89,23.64,23.64,23.64h301.41c17.74,0,23.64-7.89,23.64-23.64V1619.3c53.2,0,78.81,3.93,153.66,3.93
	c445.22,0,807.71-214.75,807.71-715.13C1323.86,525.9,1111.09,226.46,565.4,226.46z M524.03,1309.98c-78.81,0-114.27,0-159.58-3.93
	h0.02V545.6c35.46-1.97,110.32-5.9,189.12-5.9c262.01,0,417.64,126.09,417.64,376.28C971.24,1229.21,754.54,1309.98,524.03,1309.98z
	"/>
</svg>
