<?xml version="1.0" encoding="utf-8"?>
<!-- Generator: Adobe Illustrator 23.0.3, SVG Export Plug-In . SVG Version: 6.00 Build 0)  -->
<svg version="1.1" id="Layer_1" xmlns="http://www.w3.org/2000/svg" xmlns:xlink="http://www.w3.org/1999/xlink" x="0px" y="0px"
	 viewBox="0 0 710.4 255.6" style="enable-background:new 0 0 710.4 255.6;" xml:space="preserve">
<style type="text/css">
	.st0{fill:#FFFFFF;stroke:#FFFFFF;stroke-width:4;stroke-miterlimit:10;}
	.st1{fill:#2B3D5E;}
	.st2{fill:#404040;}
	.st3{fill:#FFFFFF;}
	.st4{enable-background:new    ;}
	.st5{fill:#2D2D2D;}
	.st6{font-family:'GearedSlab-Regular';}
	.st7{font-size:11.72px;}
	.st8{fill:none;stroke:#FFFFFF;stroke-width:1.5;stroke-linecap:round;stroke-miterlimit:10;}
	.st9{fill:none;stroke:#56648C;stroke-width:1.5;stroke-linecap:round;stroke-linejoin:round;}
</style>
<title>tnt_logo</title>
<path class="st0" d="M127.8,117.7c0.7-2.1,2.6-3.5,4.8-3.4h29.1c0-0.3,0-0.7,0-1c0-9,8.1-16.2,18.3-16.5l12.8-0.3h0.2
	c2.9,0.1,5.7-0.8,8.1-2.4c3-2.1,4.8-5.4,4.9-9.1c0-6.5-5.9-11.8-13.1-11.8H2c0,24.6,22.8,44.5,50.8,44.5L127.8,117.7z"/>
<path class="st0" d="M132.7,124.7c-2.3,0-4.3-1.4-4.9-3.6h-79c0,24.6,22.8,44.5,50.8,44.5h36.6v-0.1c0.7-2.1,2.6-3.5,4.8-3.4h17.8
	v-37.3H132.7z"/>
<path class="st0" d="M141.1,172.3c-2.2,0-4.2-1.4-4.9-3.5h-38c0,24.6,22.8,44.4,50.8,44.4h9.8v-40.9H141.1z"/>
<path class="st0" d="M582.5,117.7c-0.7-2.1-2.6-3.5-4.8-3.4h-29.1c0-0.3,0-0.7,0-1c0-9-8.2-16.2-18.3-16.5l-12.9-0.3h-0.2
	c-2.9,0.1-5.7-0.8-8.1-2.4c-3-2.1-4.8-5.4-4.9-9.1c0-6.5,5.9-11.8,13.1-11.8h190.9c0,24.6-22.8,44.5-50.8,44.5L582.5,117.7z"/>
<path class="st0" d="M577.7,124.7c2.3,0,4.3-1.4,4.9-3.6h79c0,24.6-22.8,44.5-50.8,44.5h-36.7c0,0,0-0.1,0-0.1
	c-0.7-2.1-2.6-3.5-4.8-3.4h-17.8v-37.3H577.7z"/>
<path class="st0" d="M569.3,172.3c2.2,0,4.2-1.4,4.8-3.5h38c0,24.6-22.8,44.4-50.8,44.4h-9.7v-40.9H569.3z"/>
<path class="st0" d="M548,118.8c-1.7,6.7-9.7,11.7-19.3,11.7h-347c-5.4,0.1-10.6-1.7-14.8-5c-2.1-1.7-3.6-4-4.4-6.7
	c-0.2,0.9-0.3,1.8-0.4,2.7v93.4c0,6.3,4.5,10,11.6,11.5l181.5,27.1l181.5-27.2c6.8-1.1,11.6-5.1,11.6-11.5v-93.4
	C548.3,120.6,548.2,119.7,548,118.8z"/>
<path class="st1" d="M127.8,117.5c0.7-2.1,2.6-3.5,4.8-3.4h29.1c0-0.3,0-0.7,0-1c0-9.1,8.1-16.2,18.3-16.5l12.9-0.3h0.2
	c2.9,0.1,5.7-0.8,8.1-2.4c3-2.1,4.8-5.4,4.9-9.1c0-6.5-5.9-11.8-13.1-11.8H2c0,24.5,22.8,44.4,50.8,44.4H127.8z"/>
<path class="st1" d="M132.7,124.4c-2.3,0-4.3-1.4-4.9-3.6h-79c0,24.6,22.8,44.5,50.8,44.5h36.6v-0.1c0.7-2.1,2.6-3.5,4.8-3.4h17.8
	v-37.3L132.7,124.4z"/>
<path class="st1" d="M141.1,172.1c-2.2,0-4.2-1.4-4.9-3.5h-38c0,24.5,22.8,44.4,50.8,44.4h9.8v-40.9H141.1z"/>
<path class="st1" d="M582.5,117.5c-0.7-2.1-2.6-3.5-4.8-3.4h-29.1c0-0.3,0-0.7,0-1c0-9.1-8.2-16.2-18.3-16.5l-12.9-0.3h-0.2
	c-2.9,0.1-5.7-0.8-8.1-2.4c-3-2.1-4.8-5.4-4.9-9.1c0-6.5,5.9-11.8,13.1-11.8h190.9c0,24.6-22.8,44.5-50.8,44.5L582.5,117.5z"/>
<path class="st1" d="M577.7,124.4c2.3,0,4.3-1.4,4.9-3.6h79c0,24.6-22.8,44.5-50.8,44.5h-36.6c0,0,0-0.1,0-0.1
	c-0.7-2.1-2.6-3.5-4.8-3.4h-17.8v-37.3L577.7,124.4z"/>
<path class="st1" d="M569.3,172.1c2.2,0,4.2-1.4,4.8-3.5h38c0,24.5-22.8,44.4-50.8,44.4h-9.7v-40.9H569.3z"/>
<path class="st2" d="M548,118.6c-1.7,6.6-9.7,11.7-19.3,11.7h-347c-5.4,0.1-10.7-1.6-14.9-5c-2.1-1.7-3.6-4-4.4-6.7
	c-0.2,0.9-0.3,1.8-0.4,2.7v93.4c0,6.3,4.5,10,11.6,11.5l181.5,27.2l181.5-27.1c6.8-1.1,11.6-5.1,11.6-11.5v-93.4
	C548.3,120.3,548.2,119.4,548,118.6z"/>
<polygon class="st3" points="215.5,30.1 226.6,30.1 226.6,97.4 219.5,97.4 219.5,121.1 266.7,121.1 266.7,97.4 258.9,97.4 
	258.9,30.1 270.3,30.1 270.3,49 293.4,49 293.4,6.7 191.8,6.7 191.8,48.7 215.5,48.7 "/>
<polygon class="st3" points="303.1,6.3 303.1,30.1 311.2,30.1 311.2,97.4 303.1,97.4 303.1,121.1 341.6,121.1 341.6,62.9 
	372.4,121.1 402.9,121.1 402.9,30.4 410.4,30.1 410.4,6.7 372.1,6.7 372.1,63.9 341.2,6.3 "/>
<polygon class="st3" points="443,30.1 454.1,30.1 454.1,97.4 447,97.4 447,121.1 494.1,121.1 494.1,97.4 486.3,97.4 486.3,30.1 
	497.8,30.1 497.8,49 520.8,49 520.8,6.7 419.2,6.7 419.2,48.7 443,48.7 "/>
<g class="st4">
	<path class="st3" d="M216.3,203.1l6.8-32c-4.5-2-7.9-2.8-11.8-3.2c-6.6,14.4-11.4,31.1-11.4,40.2c0,2.8,0.7,4.1,1.2,4.9
		c-4.8,0-11.8-0.2-11.8-9.3c0-7.9,5.3-22.4,12.9-35.8c-5.5,0.4-9.2,1.6-10.3,4.6c0.4,0,1.1,1.5,1.1,2.7c0,2.1-2.2,3.4-4.9,3.4
		c-3,0-5.5-1.7-5.5-5.1c0-6,7.6-10.8,18-10.8c1.2,0,2.7,0.1,4.6,0.3c8.9-14.1,20.3-26,30.6-26c2,0,4.8,0.4,7,1.2L229,203.1H216.3z
		 M229,143.3c-5.3,2.8-10.9,11-15.8,20.9c3.5,0.7,7.3,1.7,10.7,3.1L229,143.3z"/>
	<path class="st3" d="M281.1,159.1l-6.3,29.9c-0.3,1.1-0.4,2-0.4,2.8c0,2.5,1.1,3.3,3.6,3.3c3.4,0,5.8-3.3,7.1-7.7h3.7
		c-5,14.4-12.9,16.3-17.7,16.3c-5,0-8.2-2.9-8.7-8.4c-4.4,7.2-9.3,8.4-13,8.4c-5.3,0-9.4-3.2-9.4-10.6c0-1.7,0.3-3.6,0.7-5.7l6-28.3
		h12.7L253,189c-0.2,0.9-0.3,1.7-0.3,2.5c0,2,0.7,3.6,2.6,3.6c3.4,0,5.7-3.3,7-7.7l6-28.3H281.1z"/>
	<path class="st3" d="M297.8,189c-0.3,1.1-0.4,2.1-0.4,3.1c0,1.8,0.7,3.2,3.1,3.2c0.6,0,1.6,0,2.3-0.3c-2.5,7.6-6.3,8.6-9.3,8.6
		c-6.2,0-8.8-4.3-8.8-9.9c0-1.5,0.2-3.1,0.5-4.7l5.6-26.4h-2.9l0.7-3.5h2.9l2.6-12.2l13-1.8c0,0-1.3,6-3,13.9h5.3l-0.7,3.5h-5.3
		L297.8,189z"/>
</g>
<g class="st4">
	<path class="st3" d="M342.5,170.2c3.1-0.6,5.3-4.4,6.3-6.1h2.8c-1.8,3.8-4.4,9.2-9.1,11.8c-1.1,16.9-9.9,27.6-21,27.6
		c-8.2,0-14.1-3.9-14.1-13.9c0-10.1,5.7-31.3,23.9-31.3C338.2,158.3,341.9,162.4,342.5,170.2z M335,177.2c-1.4-0.5-2.1-1.8-2.1-4
		c0-2.4,1-3.9,2.5-4.6c-0.2-3.7-1.1-5-3.3-5c-6.3,0-11.4,16.1-11.4,24.7c0,5.8,1.1,7.1,4.5,7.1C329.4,195.5,333.7,187.6,335,177.2z"
		/>
</g>
<g class="st4">
	<path class="st3" d="M404.1,203.1l5.6-39.5l-16.6,39.5h-12.1l1.8-39.7l-14.7,39.7h-7l22.4-60.5c-8.7,2.9-14,9.8-14,19.8
		c0,4.7,1.1,5.3,1.2,6.1c-5.7,0-9.4-2.2-9.4-8c0-11.3,14.6-23.4,28-23.4c2.3,0,4.6,0.4,6.7,1.2l-2,46.4l19.4-46.4H426l-9.2,64.8
		H404.1z"/>
	<path class="st3" d="M466.8,159.1l-6.3,29.9c-0.3,1.1-0.4,2-0.4,2.8c0,2.5,1.1,3.8,3.6,3.8c3.4,0,5.8-3.9,7.1-8.3h3.7
		c-5,14.4-12.9,16.3-17.7,16.3c-4.9,0-8.1-2.8-8.6-8.1c-2.7,4-6.9,8.1-13.1,8.1c-6,0-11.7-3.7-11.7-14.2c0-11.9,7.3-30.8,22.6-30.8
		c5,0,7.1,1.9,7.1,4.5v0.6l1-4.7H466.8z M436.4,188.2c0,6.8,2.8,6.9,4.4,6.9c2.6,0,6.3-2.6,7.3-7.7l4.2-19.9c0-1.1-0.8-3.3-3.6-3.3
		C441.3,164.1,436.4,180,436.4,188.2z"/>
	<path class="st3" d="M489.5,159.1l-1.1,5.5c3.1-2.6,6.4-5.5,10.7-5.5c4,0,6.1,3.3,6.1,6.6c0,3.1-2,6.4-6.3,6.4
		c-4.9,0-2.5-5.8-5.1-5.8c-2.6,0-4.2,1.3-6.4,3.3l-7,33.5h-12.7l9.3-44H489.5z"/>
	<path class="st3" d="M516.6,189c-0.3,1.1-0.4,2.1-0.4,3.1c0,1.8,0.7,3.2,3.1,3.2c0.6,0,1.6,0,2.3-0.3c-2.5,7.6-6.3,8.6-9.3,8.6
		c-6.2,0-8.8-4.3-8.8-9.9c0-1.5,0.2-3.1,0.5-4.7l5.6-26.4h-2.9l0.7-3.5h2.9l2.6-12.2l13-1.8c0,0-1.3,6-3,13.9h5.3l-0.7,3.5h-5.3
		L516.6,189z"/>
</g>
<path class="st5" d="M365.5,244.6c-0.8-0.8-1.3-0.6-2-1.2c-0.4-0.3-0.8-0.6-1.1-0.9l-5.7-5.7l4.2-4.2c0.8-0.7,1.6-1.3,2.6-1.8
	c0.7,0.1,1.5-0.3,1.8-1c0.4-0.8,0.6-1.7,0.3-2.6c-0.1-0.1-0.2-0.1-0.3-0.1l-0.5,1.3c-0.5,0.5-1.3,0.5-1.8,0c-0.3-0.3-0.4-0.7-0.4-1
	l0.6-1.4c-0.1-0.1-0.1-0.1-0.2-0.2c0,0-2.6,1.4-2,3c-0.3,0.8-0.8,1.6-1.3,2.3l-4.3,4.3l-4.3-4.3c-0.7-0.8-1.3-1.6-1.8-2.6
	c0.1-0.7-0.3-1.5-1-1.8c-0.8-0.4-1.7-0.6-2.6-0.3c-0.1,0.1-0.1,0.2-0.1,0.3l1.3,0.5c0.4,0.4,0.5,0.9,0.3,1.4
	c-0.2,0.5-0.7,0.8-1.3,0.8l-1.4-0.6c-0.1,0.1-0.1,0.1-0.2,0.2c0,0,1.4,2.6,3,2c0.8,0.3,1.6,0.8,2.3,1.3l4.5,4.5l-4.5,4.5
	c-0.8,0.7-1.6,1.3-2.6,1.8c-0.7-0.1-1.5,0.3-1.8,1c-0.4,0.8-0.6,1.7-0.3,2.6c0.1,0.1,0.2,0.1,0.3,0.1l0.5-1.3
	c0.5-0.5,1.2-0.5,1.8-0.1c0.3,0.3,0.4,0.7,0.4,1.1l-0.6,1.4c0.1,0.1,0.1,0.1,0.2,0.2c0,0,2.6-1.4,2-3c0.3-0.8,0.8-1.6,1.3-2.3
	l4.6-4.6l5.9,5.9c0.5,0.5,0.9,1.1,1.2,1.8c0.3,0.8,0.8,1.7,2.1,1.4c0.9-0.2,1.4-1.1,1.2-2C365.8,245,365.7,244.8,365.5,244.6z
	 M350.8,240.6l3.6-3.6l0,0L350.8,240.6z M355.7,235.7l3.3-3.3L355.7,235.7z M365.1,246.5c-0.2,0-0.4,0.1-0.5,0.3
	c-0.2-0.1-0.5-0.1-0.6,0c-0.1-0.2-0.3-0.3-0.6-0.3c0-0.2-0.1-0.5-0.3-0.6c0.2-0.2,0.2-0.4,0-0.6c0,0,0.4-0.2,0.3-0.6
	c0.2,0.1,0.5-0.1,0.6-0.3c0.2,0.1,0.4,0.1,0.6,0c0.1,0.2,0.3,0.3,0.6,0.3c0,0.2,0.1,0.5,0.3,0.6c-0.1,0.2-0.1,0.5,0,0.6
	C365.4,246,365.1,246.2,365.1,246.5L365.1,246.5z"/>
<text transform="matrix(1 0 0 1 327.75 241.86)" class="st5 st6 st7">E</text>
<text transform="matrix(1 0 0 1 332.79 241.86)" class="st5 st6 st7">S</text>
<text transform="matrix(1 0 0 1 338.02 241.86)" class="st5 st6 st7">T</text>
<text transform="matrix(1 0 0 1 343.11 241.86)" class="st5 st6 st7">.</text>
<text transform="matrix(1 0 0 1 367.27 241.86)" class="st5 st6 st7">2</text>
<text transform="matrix(1 0 0 1 372.25 241.86)" class="st5 st6 st7">017</text>
<path class="st3" d="M365,245.2c-0.8-0.8-1.3-0.6-2-1.1c-0.4-0.3-0.8-0.6-1.1-0.9l-5.7-5.7l4.2-4.2c0.8-0.7,1.6-1.3,2.6-1.8
	c0.7,0.1,1.5-0.3,1.8-1c0.4-0.8,0.6-1.7,0.3-2.6c-0.1-0.1-0.2-0.1-0.3-0.1l-0.5,1.3c-0.4,0.3-0.9,0.5-1.4,0.3
	c-0.5-0.2-0.8-0.7-0.8-1.3l0.6-1.4c-0.1-0.1-0.1-0.1-0.2-0.2c0,0-2.6,1.4-2,3c-0.3,0.8-0.8,1.6-1.3,2.3l-4.3,4.3l-4.3-4.3
	c-0.7-0.8-1.3-1.6-1.8-2.6c0.1-0.7-0.3-1.5-1-1.8c-0.8-0.4-1.7-0.6-2.6-0.3c-0.1,0.1-0.1,0.2-0.1,0.3l1.3,0.5c0.5,0.5,0.5,1.3,0,1.8
	c-0.3,0.3-0.6,0.4-1,0.4l-1.4-0.6c-0.1,0.1-0.1,0.1-0.2,0.2c0,0,1.4,2.6,3,2c0.8,0.3,1.6,0.8,2.3,1.3l4.5,4.4l-4.5,4.5
	c-0.8,0.7-1.6,1.3-2.6,1.8c-0.7-0.1-1.5,0.3-1.8,1c-0.4,0.8-0.6,1.7-0.3,2.6c0.1,0.1,0.2,0.1,0.3,0.1l0.5-1.3c0.5-0.5,1.3-0.5,1.8,0
	c0.3,0.3,0.4,0.7,0.4,1l-0.6,1.4c0.1,0.1,0.1,0.1,0.2,0.2c0,0,2.6-1.4,2-3c0.3-0.8,0.8-1.6,1.3-2.3l4.6-4.6l5.9,5.9
	c0.5,0.5,0.9,1.1,1.2,1.8c0.3,0.8,0.8,1.7,2.1,1.4c0.9-0.2,1.5-1.1,1.2-2C365.3,245.6,365.2,245.4,365,245.2z M350.2,241.2l3.6-3.6
	l0,0L350.2,241.2z M355.1,236.3l3.3-3.3L355.1,236.3L355.1,236.3z M364.5,247.1c-0.2,0-0.4,0.1-0.5,0.3c-0.2-0.1-0.5-0.1-0.6,0
	c-0.1-0.2-0.3-0.3-0.6-0.3c0-0.2-0.1-0.5-0.3-0.6c0.1-0.2,0.1-0.4,0-0.6c0,0,0.4-0.2,0.3-0.6c0.3-0.3,0.8-0.4,1.2-0.3
	c0.1,0.2,0.3,0.3,0.6,0.3c0,0.2,0.1,0.5,0.3,0.6c-0.1,0.2-0.1,0.4,0,0.6C364.9,246.6,364.5,246.7,364.5,247.1z"/>
<text transform="matrix(1 0 0 1 327.19 242.43)" class="st3 st6 st7">E</text>
<text transform="matrix(1 0 0 1 332.23 242.43)" class="st3 st6 st7">S</text>
<text transform="matrix(1 0 0 1 337.46 242.43)" class="st3 st6 st7">T</text>
<text transform="matrix(1 0 0 1 342.55 242.43)" class="st3 st6 st7">.</text>
<text transform="matrix(1 0 0 1 366.7 242.43)" class="st3 st6 st7">2</text>
<text transform="matrix(1 0 0 1 371.68 242.43)" class="st3 st6 st7">017</text>
<polygon class="st5" points="212.5,210.7 361.9,206.4 350.4,212.7 527.8,207.8 325.2,221.4 339.1,213.2 "/>
<polygon class="st3" points="207.5,211.9 356.9,207.5 345.4,213.9 522.8,208.9 320.2,222.6 334.1,214.3 "/>
<polygon class="st3" points="118.7,0 125.7,18.3 145.3,19.3 130.1,31.6 135.1,50.5 118.7,39.8 102.3,50.5 107.4,31.6 92.2,19.3 
	111.8,18.3 "/>
<polygon class="st3" points="602,0 609,18.3 628.5,19.3 613.3,31.6 618.4,50.5 602,39.8 585.6,50.5 590.7,31.6 575.4,19.3 595,18.3 
	"/>
<path class="st8" d="M164.8,129.6v85.6c0.6,5.5,5.8,7.6,12,8.6c7.4,1.2,97.8,14.3,97.8,14.3h48.9"/>
<path class="st8" d="M545.6,129.6v85.6c-0.6,5.5-5.8,7.6-12,8.6c-7.4,1.2-97.8,14.3-97.8,14.3H387"/>
<path class="st9" d="M190.3,75.5H5.2c-1.6,5.4,5.5,30.7,35.7,38.2"/>
<path class="st9" d="M124.9,123.4h-73c-1.6,5.4,5.5,30.7,35.7,38.2"/>
<path class="st9" d="M133.8,171.1h-32.7c-1.6,5.4,5.5,30.7,35.7,38.2"/>
<path class="st9" d="M520,75.5h185.1c1.6,5.4-5.5,30.7-35.7,38.2"/>
<path class="st9" d="M585.4,123.4h73c1.6,5.4-5.5,30.7-35.7,38.2"/>
<path class="st9" d="M576.5,171.1h32.7c1.6,5.4-5.5,30.7-35.7,38.2"/>
</svg>
