<svg id="Layer_1" data-name="Layer 1" xmlns="http://www.w3.org/2000/svg" viewBox="0 0 3189.21 1898.4"><title>woo-black</title><path d="M2716.6,627.9c-46.7-9.1-92,16.8-134.8,80.4-35,49.3-57,101.1-68.7,154.3-6.5,29.8-9.1,62.2-9.1,94.6,0,37.6,7.8,77.8,23.3,118,19.4,50.6,45.4,77.8,76.5,84.3,32.4,6.5,67.4-7.8,105-41.5,48-42.8,80.4-106.3,98.5-191.9h0c6.5-29.8,9.1-62.2,9.1-95.9,0-37.6-7.8-77.8-23.3-118C2773.7,661.6,2747.7,634.4,2716.6,627.9Z" transform="translate(-3.09 -92.5)"/><path d="M1980.3,712.2c-19.4-50.6-45.4-77.8-76.5-84.3-46.7-9.1-92,16.8-134.8,80.4-35,49.3-57,101.1-68.7,154.3-6.5,29.8-9.1,62.2-9.1,94.6,0,37.6,7.8,77.8,23.3,118,19.5,50.6,45.4,77.8,76.5,84.3,32.4,6.5,67.4-7.8,105-41.5,48-42.8,80.4-106.3,98.5-191.9h0c6.5-29.8,10.4-62.2,9.1-95.9C2003.6,792.5,1995.8,752.4,1980.3,712.2Z" transform="translate(-3.09 -92.5)"/><path d="M2895,92.5H299.1C134.8,92.5,1.8,226.8,3.1,389.8v990.9c0,164.3,133,297.3,297.3,297.3H1529.9l562,312.9L1964.1,1678H2895c164.3,0,297.3-133,297.3-297.3V389.8C3192.3,225.5,3059.3,92.5,2895,92.5ZM1324.3,1392.8q3.9,48.6-15.5,85.6c-15.6,28.5-38.9,44.1-68.7,46.7-33.7,2.6-68.7-13-102.4-48Q956.8,1292.3,851.2,924.8q-126.45,248.85-186.7,373.4c-76.5,146.5-141.3,221.7-195.8,225.6-35,2.6-64.8-27.2-90.7-89.4q-99.15-254.7-213.9-984c-5.2-33.7,2.6-63.5,20.7-86.9h0c18.2-24.6,45.4-37.6,81.7-40.2q99.15-7.8,112.8,93.3c40.2,271,84.3,500.4,130.9,688.4L794,564.4c25.9-49.3,58.4-75.2,97.2-77.8,57-3.9,92,32.4,106.3,108.9,32.4,172.4,73.9,318.9,123.2,443.4q50.55-493.95,171.1-713c19.4-36.3,48-54.5,85.6-57.1,29.8-2.6,57,6.5,81.7,25.9s37.6,44.1,40.2,73.9c1.3,23.3-2.6,42.8-13,62.2-50.6,93.3-92.1,250.2-125.8,468C1328.2,1110.2,1316.5,1274.8,1324.3,1392.8Zm796-203.5c-77.8,129.6-178.9,194.5-304.7,194.5a339.38,339.38,0,0,1-70-7.8c-92-19.4-160.8-68.7-207.4-150.4Q1476,1118.65,1476,968.9q0-200.25,101.1-365.6c79.1-129.6,180.2-194.5,304.7-194.5a338.64,338.64,0,0,1,70,7.8c90.7,19.5,160.8,68.7,207.4,150.4h0c41.5,70,62.2,154.3,62.2,255.4C2221.4,955.9,2187.7,1077.8,2120.3,1189.3ZM3033,822.4c0,133.5-33.7,255.4-101.1,366.9-77.8,129.6-178.9,194.5-304.7,194.5a339.38,339.38,0,0,1-70-7.8c-92-19.4-160.8-68.7-207.4-150.4q-62.25-106.95-62.2-256.7,0-200.25,101.1-365.6c79.1-129.6,180.2-194.5,304.7-194.5a339.38,339.38,0,0,1,70,7.8c92,19.5,160.8,68.7,207.4,150.4C3012.2,637,3034.2,721.3,3033,822.4Z" transform="translate(-3.09 -92.5)"/></svg>