<?xml version="1.0" encoding="utf-8"?>
<!-- Generator: Adobe Illustrator 23.0.3, SVG Export Plug-In . SVG Version: 6.00 Build 0)  -->
<svg version="1.1" id="Layer_1" xmlns="http://www.w3.org/2000/svg" xmlns:xlink="http://www.w3.org/1999/xlink" x="0px" y="0px"
	 viewBox="0 0 3195.1 1998.9" style="enable-background:new 0 0 3195.1 1998.9;" xml:space="preserve">
<style type="text/css">
	.st0{fill:#FFFFFF;}
</style>
<path class="st0" d="M2716.6,627.9c-46.7-9.1-92,16.8-134.8,80.4c-35,49.3-57,101.1-68.7,154.3c-6.5,29.8-9.1,62.2-9.1,94.6
	c0,37.6,7.8,77.8,23.3,118c19.4,50.6,45.4,77.8,76.5,84.3c32.4,6.5,67.4-7.8,105-41.5c48-42.8,80.4-106.3,98.5-191.9v0
	c6.5-29.8,9.1-62.2,9.1-95.9c0-37.6-7.8-77.8-23.3-118C2773.7,661.6,2747.7,634.4,2716.6,627.9z"/>
<path class="st0" d="M1980.3,712.2c-19.4-50.6-45.4-77.8-76.5-84.3c-46.7-9.1-92,16.8-134.8,80.4c-35,49.3-57,101.1-68.7,154.3
	c-6.5,29.8-9.1,62.2-9.1,94.6c0,37.6,7.8,77.8,23.3,118c19.5,50.6,45.4,77.8,76.5,84.3c32.4,6.5,67.4-7.8,105-41.5
	c48-42.8,80.4-106.3,98.5-191.9l0,0c6.5-29.8,10.4-62.2,9.1-95.9C2003.6,792.5,1995.8,752.4,1980.3,712.2z"/>
<path class="st0" d="M2895,92.5H299.1c-164.3,0-297.3,134.3-296,297.3v990.9c0,164.3,133,297.3,297.3,297.3h1229.5l562,312.9
	l-127.8-312.9H2895c164.3,0,297.3-133,297.3-297.3V389.8C3192.3,225.5,3059.3,92.5,2895,92.5z M1324.3,1392.8
	c2.6,32.4-2.6,60.9-15.5,85.6c-15.6,28.5-38.9,44.1-68.7,46.7c-33.7,2.6-68.7-13-102.4-48c-120.6-123.2-216.5-307.3-286.5-552.3
	c-84.3,165.9-146.5,290.4-186.7,373.4c-76.5,146.5-141.3,221.7-195.8,225.6c-35,2.6-64.8-27.2-90.7-89.4
	c-66.1-169.8-137.4-497.8-213.9-984c-5.2-33.7,2.6-63.5,20.7-86.9l0,0c18.2-24.6,45.4-37.6,81.7-40.2
	c66.1-5.2,103.7,25.9,112.8,93.3c40.2,271,84.3,500.4,130.9,688.4L794,564.4c25.9-49.3,58.4-75.2,97.2-77.8
	c57-3.9,92,32.4,106.3,108.9c32.4,172.4,73.9,318.9,123.2,443.4c33.7-329.3,90.8-566.5,171.1-713c19.4-36.3,48-54.5,85.6-57.1
	c29.8-2.6,57,6.5,81.7,25.9c24.6,19.4,37.6,44.1,40.2,73.9c1.3,23.3-2.6,42.8-13,62.2c-50.6,93.3-92.1,250.2-125.8,468
	C1328.2,1110.2,1316.5,1274.8,1324.3,1392.8z M2120.3,1189.3c-77.8,129.6-178.9,194.5-304.7,194.5c-22,0-45.4-2.6-70-7.8
	c-92-19.4-160.8-68.7-207.4-150.4c-41.5-71.3-62.2-156.9-62.2-256.7c0-133.5,33.7-255.4,101.1-365.6
	c79.1-129.6,180.2-194.5,304.7-194.5c22.1,0,45.4,2.6,70,7.8c90.7,19.5,160.8,68.7,207.4,150.4h0c41.5,70,62.2,154.3,62.2,255.4
	C2221.4,955.9,2187.7,1077.8,2120.3,1189.3z M3033,822.4c0,133.5-33.7,255.4-101.1,366.9c-77.8,129.6-178.9,194.5-304.7,194.5
	c-22,0-45.4-2.6-70-7.8c-92-19.4-160.8-68.7-207.4-150.4c-41.5-71.3-62.2-156.9-62.2-256.7c0-133.5,33.7-255.4,101.1-365.6
	c79.1-129.6,180.2-194.5,304.7-194.5c22,0,45.4,2.6,70,7.8c92,19.5,160.8,68.7,207.4,150.4C3012.2,637,3034.2,721.3,3033,822.4z"/>
</svg>
